<?xml version="1.0" encoding="UTF-8"?>
<svg version="1.1" xmlns="http://www.w3.org/2000/svg" width="300" height="152">
<path d="M0 0 C0.95628296 0.00182281 1.91256592 0.00364563 2.89782715 0.00552368 C45.02666066 0.14008558 97.02947768 5.86255873 130.4375 34.3125 C131.22898437 34.93382812 132.02046875 35.55515625 132.8359375 36.1953125 C138.78103707 41.07384936 142.69120651 46.62936148 146.4375 53.3125 C146.964646 54.23023193 146.964646 54.23023193 147.50244141 55.16650391 C150.74235465 62.60223168 149.45519855 74.8086426 147.703125 82.5625 C146.52888102 85.14924036 145.22582993 87.10338656 143.4375 89.3125 C142.67050781 90.28058594 141.90351563 91.24867187 141.11328125 92.24609375 C120.56210059 116.85657633 85.53097852 126.94643437 55.1875 132.5625 C54.37466553 132.71348145 53.56183105 132.86446289 52.72436523 133.02001953 C36.69660559 135.80786595 20.91177127 136.66078909 4.66333008 136.62817383 C1.4034634 136.62502747 -1.8554798 136.64852443 -5.11523438 136.67382812 C-46.4572775 136.79831017 -100.13802331 130.01101112 -131.5625 100.3125 C-132.34625 99.61769531 -133.13 98.92289062 -133.9375 98.20703125 C-141.7978299 90.90261284 -147.53812081 82.18195456 -147.95727539 71.2578125 C-148.19647029 57.91757121 -144.28659631 49.31417228 -134.95703125 39.61328125 C-113.36513972 18.86674926 -83.75063653 10.0141524 -55 4.5625 C-53.96182129 4.36382324 -52.92364258 4.16514648 -51.85400391 3.96044922 C-34.64100447 0.86672208 -17.45965957 -0.06966 0 0 Z " fill="#E7EAE8" transform="translate(149.5625,7.6875)"/>
<path d="M0 0 C0.95628296 0.00182281 1.91256592 0.00364563 2.89782715 0.00552368 C45.02666066 0.14008558 97.02947768 5.86255873 130.4375 34.3125 C131.22898437 34.93382812 132.02046875 35.55515625 132.8359375 36.1953125 C138.78103707 41.07384936 142.69120651 46.62936148 146.4375 53.3125 C146.964646 54.23023193 146.964646 54.23023193 147.50244141 55.16650391 C150.74235465 62.60223168 149.45519855 74.8086426 147.703125 82.5625 C146.52888102 85.14924036 145.22582993 87.10338656 143.4375 89.3125 C142.67050781 90.28058594 141.90351563 91.24867187 141.11328125 92.24609375 C120.56210059 116.85657633 85.53097852 126.94643437 55.1875 132.5625 C54.37466553 132.71348145 53.56183105 132.86446289 52.72436523 133.02001953 C36.69660559 135.80786595 20.91177127 136.66078909 4.66333008 136.62817383 C1.4034634 136.62502747 -1.8554798 136.64852443 -5.11523438 136.67382812 C-46.4572775 136.79831017 -100.13802331 130.01101112 -131.5625 100.3125 C-132.34625 99.61769531 -133.13 98.92289062 -133.9375 98.20703125 C-141.7978299 90.90261284 -147.53812081 82.18195456 -147.95727539 71.2578125 C-148.19647029 57.91757121 -144.28659631 49.31417228 -134.95703125 39.61328125 C-113.36513972 18.86674926 -83.75063653 10.0141524 -55 4.5625 C-53.96182129 4.36382324 -52.92364258 4.16514648 -51.85400391 3.96044922 C-34.64100447 0.86672208 -17.45965957 -0.06966 0 0 Z M1.4375 33.3125 C1.4375 34.3025 1.4375 35.2925 1.4375 36.3125 C-2.21535808 38.53759122 -5.73011068 38.84221297 -9.9375 39.3125 C-14.77205629 39.85505542 -18.9728251 40.72578382 -23.5625 42.3125 C-26.9375 42.4375 -26.9375 42.4375 -29.5625 42.3125 C-30.0575 41.3225 -30.0575 41.3225 -30.5625 40.3125 C-31.8825 40.3125 -33.2025 40.3125 -34.5625 40.3125 C-34.5625 39.6525 -34.5625 38.9925 -34.5625 38.3125 C-33.9025 38.3125 -33.2425 38.3125 -32.5625 38.3125 C-32.5625 37.3225 -32.5625 36.3325 -32.5625 35.3125 C-34.97895782 35.14562552 -34.97895782 35.14562552 -37.5625 35.3125 C-38.2225 35.9725 -38.8825 36.6325 -39.5625 37.3125 C-41.46228421 37.3125 -43.36225193 37.30816267 -45.26171875 37.2734375 C-49.17437448 37.33986629 -52.97112984 37.67937168 -56.5625 39.3125 C-58.25415301 42.29533157 -58.25415301 42.29533157 -58.5625 45.3125 C-59.10777344 45.11914062 -59.65304688 44.92578125 -60.21484375 44.7265625 C-70.62677097 41.13133293 -79.48136828 40.02877259 -90.5625 40.3125 C-90.2325 38.6625 -89.9025 37.0125 -89.5625 35.3125 C-92.85325996 35.69154208 -92.85325996 35.69154208 -95.5625 37.3125 C-95.5625 38.9625 -95.5625 40.6125 -95.5625 42.3125 C-101.0075 43.7975 -101.0075 43.7975 -106.5625 45.3125 C-106.8606424 49.0888932 -106.8606424 49.0888932 -105.5625 51.3125 C-106.5525 51.6425 -107.5425 51.9725 -108.5625 52.3125 C-108.5625 53.6325 -108.5625 54.9525 -108.5625 56.3125 C-112.54227076 57.1566938 -116.53257218 57.75937265 -120.5625 58.3125 C-120.2325 59.3025 -119.9025 60.2925 -119.5625 61.3125 C-116.05059191 62.54219878 -116.05059191 62.54219878 -112.5625 63.3125 C-114.5425 63.9725 -116.5225 64.6325 -118.5625 65.3125 C-118.2325 66.6325 -117.9025 67.9525 -117.5625 69.3125 C-120.2025 69.6425 -122.8425 69.9725 -125.5625 70.3125 C-125.5625 70.9725 -125.5625 71.6325 -125.5625 72.3125 C-124.2425 72.6425 -122.9225 72.9725 -121.5625 73.3125 C-121.5625 73.9725 -121.5625 74.6325 -121.5625 75.3125 C-124.2025 75.3125 -126.8425 75.3125 -129.5625 75.3125 C-130.54370464 78.36513664 -130.54370464 80.25986336 -129.5625 83.3125 C-131.8725 83.3125 -134.1825 83.3125 -136.5625 83.3125 C-137.2225 81.6625 -137.8825 80.0125 -138.5625 78.3125 C-139.2225 78.3125 -139.8825 78.3125 -140.5625 78.3125 C-139.82 77.631875 -139.82 77.631875 -139.0625 76.9375 C-137.33640663 75.43614481 -137.33640663 75.43614481 -137.5625 73.3125 C-136.2425 73.3125 -134.9225 73.3125 -133.5625 73.3125 C-133.5625 72.3225 -133.5625 71.3325 -133.5625 70.3125 C-135.02042884 70.25850264 -136.47892712 70.21970823 -137.9375 70.1875 C-138.74960938 70.16429687 -139.56171875 70.14109375 -140.3984375 70.1171875 C-142.77592243 70.09879949 -142.77592243 70.09879949 -144.5625 72.3125 C-144.40538018 81.42544936 -138.52801537 89.48734387 -132.5625 95.875 C-119.22819081 108.51921973 -100.89754438 116.87332919 -83.5625 122.3125 C-82.57805908 122.6233252 -82.57805908 122.6233252 -81.57373047 122.94042969 C-72.53760843 125.74789228 -63.44142914 127.85131708 -54.125 129.5 C-53.2575415 129.65476807 -52.39008301 129.80953613 -51.49633789 129.96899414 C-34.926707 132.74493941 -18.53060063 133.65871157 -1.75 133.5625 C-0.78316284 133.55939819 0.18367432 133.55629639 1.17980957 133.55310059 C15.01157455 133.50108643 28.72739444 133.31122769 42.4375 131.3125 C43.91186523 131.10318848 43.91186523 131.10318848 45.41601562 130.88964844 C57.35277692 129.15332522 68.96206926 127.08055189 80.4375 123.3125 C81.8525062 122.87643951 83.26789523 122.44162005 84.68359375 122.0078125 C106.28100184 115.25629115 128.25501972 105.5369504 141.4375 86.3125 C140.75399299 84.29228102 140.75399299 84.29228102 139.4375 82.3125 C137.36097562 81.50860828 137.36097562 81.50860828 135 81.25 C131.29759782 80.70714367 130.0331161 79.92214646 127.4375 77.3125 C123.81214024 77.0621423 123.81214024 77.0621423 120.4375 77.3125 C120.7675 76.6525 121.0975 75.9925 121.4375 75.3125 C123.10111117 74.81341665 124.76775485 74.32188021 126.44921875 73.88671875 C129.57976608 72.98261176 132.46742715 71.64600209 135.4375 70.3125 C135.4375 69.3225 135.4375 68.3325 135.4375 67.3125 C134.179375 67.43625 132.92125 67.56 131.625 67.6875 C130.91730469 67.75710937 130.20960938 67.82671875 129.48046875 67.8984375 C127.13761858 68.23915391 127.13761858 68.23915391 124.4375 70.3125 C122.78200469 70.69749891 121.1152567 71.04043135 119.4375 71.3125 C119.8125 68.375 119.8125 68.375 120.4375 65.3125 C121.0975 64.9825 121.7575 64.6525 122.4375 64.3125 C122.4375 62.9925 122.4375 61.6725 122.4375 60.3125 C120.4575 60.3125 118.4775 60.3125 116.4375 60.3125 C116.4375 59.6525 116.4375 58.9925 116.4375 58.3125 C119.7375 58.3125 123.0375 58.3125 126.4375 58.3125 C127.0975 56.9925 127.7575 55.6725 128.4375 54.3125 C128.1075 53.3225 127.7775 52.3325 127.4375 51.3125 C127.1075 52.3025 126.7775 53.2925 126.4375 54.3125 C124.80931054 54.08419299 123.1848651 53.82906424 121.5625 53.5625 C120.20511719 53.35367188 120.20511719 53.35367188 118.8203125 53.140625 C116.4375 52.3125 116.4375 52.3125 115.09375 50.4375 C114.18856077 47.50641106 114.76711787 45.26218138 115.4375 42.3125 C114.7775 42.4775 114.1175 42.6425 113.4375 42.8125 C108.34326317 43.66153947 103.89202125 44.28218084 99.4375 41.3125 C98.1175 41.3125 96.7975 41.3125 95.4375 41.3125 C95.4375 40.6525 95.4375 39.9925 95.4375 39.3125 C90.15550407 38.11261955 90.15550407 38.11261955 85.4375 40.3125 C82.9375 40.625 82.9375 40.625 80.4375 40.3125 C78.8125 38.875 78.8125 38.875 77.4375 37.3125 C73.24206908 35.91402303 69.26868623 36.12824737 64.875 36.125 C63.56112305 36.10663086 63.56112305 36.10663086 62.22070312 36.08789062 C61.38345703 36.08595703 60.54621094 36.08402344 59.68359375 36.08203125 C58.91716553 36.07792236 58.1507373 36.07381348 57.36108398 36.06958008 C55.19830713 36.14306519 55.19830713 36.14306519 53.4375 38.3125 C50.40313522 38.66558534 47.35899277 38.39956347 44.3125 38.25 C43.48234375 38.23517578 42.6521875 38.22035156 41.796875 38.20507812 C36.13495317 37.9432808 32.79765358 36.61933432 28.17041016 33.39233398 C25.86277761 31.95437135 24.33794317 31.87683276 21.6875 32.375 C20.97078125 32.48972656 20.2540625 32.60445312 19.515625 32.72265625 C17.3165942 33.34681725 15.44300139 34.2239283 13.4375 35.3125 C13.4375 36.6325 13.4375 37.9525 13.4375 39.3125 C10.4375 38.3125 10.4375 38.3125 8.75 35.25 C8.316875 34.280625 7.88375 33.31125 7.4375 32.3125 C4.38479537 32.15438612 4.38479537 32.15438612 1.4375 33.3125 Z " fill="#08522D" transform="translate(149.5625,7.6875)"/>
<path d="M0 0 C1.37425644 -0.00287018 1.37425644 -0.00287018 2.77627563 -0.00579834 C4.69737017 -0.00715106 6.61847414 -0.00351887 8.53955078 0.00488281 C11.48881233 0.0156698 14.43747501 0.00491875 17.38671875 -0.0078125 C19.25781385 -0.00649219 21.12890857 -0.00393247 23 0 C23.88327972 -0.00404846 24.76655945 -0.00809692 25.67660522 -0.01226807 C31.87159588 0.03565838 31.87159588 0.03565838 34.1015625 2.265625 C34.4315625 1.605625 34.7615625 0.945625 35.1015625 0.265625 C38.1015625 1.265625 38.1015625 1.265625 40.1015625 3.265625 C40.1015625 2.605625 40.1015625 1.945625 40.1015625 1.265625 C54.2915625 1.265625 68.4815625 1.265625 83.1015625 1.265625 C83.1015625 1.925625 83.1015625 2.585625 83.1015625 3.265625 C79.4715625 3.595625 75.8415625 3.925625 72.1015625 4.265625 C72.07686675 8.35903999 72.05870457 12.45242621 72.04663086 16.54589844 C72.0415982 17.93880977 72.03477152 19.3317158 72.02612305 20.72460938 C72.01401098 22.72523746 72.00885838 24.72590388 72.00390625 26.7265625 C71.99866943 27.93103027 71.99343262 29.13549805 71.98803711 30.37646484 C71.90068359 33.2069927 71.90068359 33.2069927 73.1015625 35.265625 C75.45064125 35.95493844 75.45064125 35.95493844 78.1640625 36.390625 C79.08316406 36.55820313 80.00226563 36.72578125 80.94921875 36.8984375 C82.01462891 37.08019531 82.01462891 37.08019531 83.1015625 37.265625 C83.1015625 37.595625 83.1015625 37.925625 83.1015625 38.265625 C68.9115625 38.265625 54.7215625 38.265625 40.1015625 38.265625 C40.1015625 37.935625 40.1015625 37.605625 40.1015625 37.265625 C41.0503125 37.03875 41.9990625 36.811875 42.9765625 36.578125 C46.22944589 35.60155177 46.22944589 35.60155177 47.28466797 33.01489258 C48.13037253 30.16866452 48.33150405 27.92562782 48.296875 24.96484375 C48.29042969 23.98837891 48.28398437 23.01191406 48.27734375 22.00585938 C48.26058594 20.99845703 48.24382812 19.99105469 48.2265625 18.953125 C48.21753906 17.92638672 48.20851562 16.89964844 48.19921875 15.84179688 C48.17572451 13.31616601 48.14287381 10.7910169 48.1015625 8.265625 C46.4515625 8.265625 44.8015625 8.265625 43.1015625 8.265625 C42.7303125 9.4103125 42.7303125 9.4103125 42.3515625 10.578125 C40.94147838 13.60980585 40.08529874 14.77375688 37.1015625 16.265625 C32.02766485 15.94539303 29.40567042 14.2248095 25.4140625 11.203125 C17.48212081 5.75288363 8.39316196 5.93644524 -0.8984375 7.265625 C-5.37925627 8.59759442 -7.86393791 10.62378111 -10.8046875 14.1796875 C-12.73671791 17.8643455 -11.8713407 21.36516762 -10.8984375 25.265625 C-10.2384375 25.265625 -9.5784375 25.265625 -8.8984375 25.265625 C-8.4034375 26.255625 -8.4034375 26.255625 -7.8984375 27.265625 C3.43173858 32.06169954 15.44495768 31.46374364 26.7734375 27.23828125 C28.23638612 26.62708292 29.68345614 25.97467818 31.1015625 25.265625 C34.6015625 25.015625 34.6015625 25.015625 38.1015625 25.265625 C39.0915625 26.750625 39.0915625 26.750625 40.1015625 28.265625 C39.7715625 28.925625 39.4415625 29.585625 39.1015625 30.265625 C39.7615625 30.595625 40.4215625 30.925625 41.1015625 31.265625 C37.53416501 36.66768406 35.03955793 38.67896188 28.6640625 40.140625 C26.48371268 40.55518008 24.29540308 40.92970124 22.1015625 41.265625 C21.09996094 41.44867188 20.09835938 41.63171875 19.06640625 41.8203125 C13.08185972 42.49246846 7.11960106 42.49990209 1.1015625 42.515625 C-0.83843628 42.52154663 -0.83843628 42.52154663 -2.81762695 42.52758789 C-11.007816 42.47761944 -18.52563652 41.89761594 -26.44140625 39.82421875 C-28.8862235 38.99519728 -28.8862235 38.99519728 -30.8984375 40.265625 C-32.2184375 40.265625 -33.5384375 40.265625 -34.8984375 40.265625 C-34.8984375 40.925625 -34.8984375 41.585625 -34.8984375 42.265625 C-39.43998228 42.35297963 -43.98130982 42.40613747 -48.5234375 42.453125 C-49.80863281 42.47826172 -51.09382813 42.50339844 -52.41796875 42.52929688 C-54.28388672 42.54379883 -54.28388672 42.54379883 -56.1875 42.55859375 C-57.89993896 42.58215942 -57.89993896 42.58215942 -59.64697266 42.60620117 C-63.3067227 42.22285898 -65.72777589 41.0861307 -68.8984375 39.265625 C-68.8984375 38.605625 -68.8984375 37.945625 -68.8984375 37.265625 C-69.8884375 36.935625 -70.8784375 36.605625 -71.8984375 36.265625 C-71.8984375 35.605625 -71.8984375 34.945625 -71.8984375 34.265625 C-72.4140625 34.03875 -72.9296875 33.811875 -73.4609375 33.578125 C-76.22956115 32.08732765 -78.62458526 30.29582546 -81.1171875 28.38671875 C-83.03565853 27.17926001 -84.68546426 26.69754302 -86.8984375 26.265625 C-86.71713935 29.70355839 -86.71713935 29.70355839 -85.8984375 33.265625 C-83.96246718 34.77856788 -83.96246718 34.77856788 -81.8984375 35.265625 C-83.8784375 35.760625 -83.8784375 35.760625 -85.8984375 36.265625 C-82.9284375 36.760625 -82.9284375 36.760625 -79.8984375 37.265625 C-79.8984375 37.595625 -79.8984375 37.925625 -79.8984375 38.265625 C-94.0884375 38.265625 -108.2784375 38.265625 -122.8984375 38.265625 C-122.8984375 37.935625 -122.8984375 37.605625 -122.8984375 37.265625 C-121.83302734 37.06646484 -121.83302734 37.06646484 -120.74609375 36.86328125 C-119.82699219 36.68667969 -118.90789062 36.51007813 -117.9609375 36.328125 C-117.04441406 36.15410156 -116.12789062 35.98007813 -115.18359375 35.80078125 C-112.94553906 35.48847512 -112.94553906 35.48847512 -111.8984375 34.265625 C-111.81068145 32.12003673 -111.79148531 29.97158079 -111.80078125 27.82421875 C-111.80400391 26.51904297 -111.80722656 25.21386719 -111.81054688 23.86914062 C-111.81890349 22.4804681 -111.82736845 21.09179623 -111.8359375 19.703125 C-111.84095084 18.31054844 -111.84551403 16.91797019 -111.84960938 15.52539062 C-111.86144316 12.1054263 -111.8779287 8.68554656 -111.8984375 5.265625 C-115.5821997 3.72183368 -118.93408218 2.81879086 -122.8984375 2.265625 C-122.8984375 1.935625 -122.8984375 1.605625 -122.8984375 1.265625 C-114.64806721 1.17232458 -106.39792288 1.10155948 -98.1471529 1.05837631 C-94.31462583 1.03763473 -90.48246364 1.00956843 -86.65014648 0.96386719 C-82.94128602 0.9199226 -79.23277313 0.89638737 -75.5236721 0.88611603 C-74.11928026 0.87881065 -72.71490417 0.86454922 -71.31066322 0.84270477 C-62.05428513 0.70463728 -50.64754117 0.63043472 -43.04560852 6.75946045 C-41.8984375 8.265625 -41.8984375 8.265625 -41.82421875 10.52734375 C-41.95183594 11.32785156 -42.07945313 12.12835938 -42.2109375 12.953125 C-42.33082031 13.76136719 -42.45070313 14.56960937 -42.57421875 15.40234375 C-42.68121094 16.01722656 -42.78820312 16.63210937 -42.8984375 17.265625 C-49.3984375 20.265625 -49.3984375 20.265625 -53.8984375 20.265625 C-52.7567848 25.11764899 -49.95957483 27.20957853 -46.07421875 29.97265625 C-43.05922032 31.76433395 -40.32165758 32.55245415 -36.8984375 33.265625 C-37.2284375 31.615625 -37.5584375 29.965625 -37.8984375 28.265625 C-36.4134375 28.760625 -36.4134375 28.760625 -34.8984375 29.265625 C-35.3728125 28.935625 -35.8471875 28.605625 -36.3359375 28.265625 C-38.71437289 25.22122771 -39.12043149 22.02520064 -38.8984375 18.265625 C-35.1406594 10.43692063 -28.50243891 6.12491101 -20.62109375 3.125 C-13.53386472 0.88799801 -7.40674604 -0.03442171 0 0 Z " fill="#E8D9DC" transform="translate(169.8984375,56.734375)"/>
<path d="M0 0 C72.27 0 144.54 0 219 0 C195.05770624 23.94229376 139.02316979 23.22741722 107.75 23.25 C106.77844971 23.25100708 105.80689941 23.25201416 104.8059082 23.25305176 C89.3410317 23.24223894 74.2788789 22.58697317 59 20 C58.11602539 19.85546387 57.23205078 19.71092773 56.32128906 19.56201172 C36.60577646 16.25165324 18.22722756 10.12390007 0 2 C0 1.34 0 0.68 0 0 Z " fill="#FCFDFD" transform="translate(41,118)"/>
<path d="M0 0 C8.25037029 -0.09330042 16.50051462 -0.16406552 24.7512846 -0.20724869 C28.58381167 -0.22799027 32.41597386 -0.25605657 36.24829102 -0.30175781 C39.95715148 -0.3457024 43.66566437 -0.36923763 47.3747654 -0.37950897 C48.77915724 -0.38681435 50.18353333 -0.40107578 51.58777428 -0.42292023 C60.90001126 -0.56182091 72.13508435 -0.58069345 79.8535614 5.44769287 C81 7 81 7 81.0625 10 C80 13 80 13 77.39453125 14.58203125 C73.80883158 16.07985516 70.43368148 16.9329499 66.625 17.6875 C65.37976563 17.93886719 64.13453125 18.19023438 62.8515625 18.44921875 C61.91054687 18.63097656 60.96953125 18.81273438 60 19 C61.83850349 20.39073044 63.68196763 21.77336709 65.53515625 23.14453125 C67.23366081 24.42312026 68.90714179 25.73540808 70.55859375 27.07421875 C77.08798921 32.20107353 82.8154801 34.62877153 91 36 C91 36.33 91 36.66 91 37 C60.46282695 39.00754678 60.46282695 39.00754678 53.93359375 33.31713867 C51.8083486 30.98489404 49.8916457 28.52337728 48 26 C42.91732896 21.77508673 38.55297842 20.35105242 32 20 C32.05988141 22.12579013 32.14862744 24.25078413 32.25 26.375 C32.29640625 27.55835937 32.3428125 28.74171875 32.390625 29.9609375 C32.66124924 33.06702215 32.66124924 33.06702215 34.84375 34.375 C37.54050341 35.15666765 40.21985978 35.62088997 43 36 C43 36.33 43 36.66 43 37 C28.81 37 14.62 37 0 37 C0 36.67 0 36.34 0 36 C1.06541016 35.80083984 1.06541016 35.80083984 2.15234375 35.59765625 C3.07144531 35.42105469 3.99054687 35.24445313 4.9375 35.0625 C5.85402344 34.88847656 6.77054688 34.71445313 7.71484375 34.53515625 C9.95289844 34.22285012 9.95289844 34.22285012 11 33 C11.08775605 30.85441173 11.10695219 28.70595579 11.09765625 26.55859375 C11.09443359 25.25341797 11.09121094 23.94824219 11.08789062 22.60351562 C11.07953401 21.2148431 11.07106905 19.82617123 11.0625 18.4375 C11.05748666 17.04492344 11.05292347 15.65234519 11.04882812 14.25976562 C11.03699434 10.8398013 11.0205088 7.41992156 11 4 C7.3162378 2.45620868 3.96435532 1.55316586 0 1 C0 0.67 0 0.34 0 0 Z " fill="#FF031D" transform="translate(47,58)"/>
<path d="M0 0 C1.54960407 1.06829997 3.05377697 2.201628 4.55444336 3.33764648 C7.60075254 5.37570058 9.68121854 5.95588834 13.31616211 6.18530273 C16.29989835 4.69343462 17.15607799 3.52948359 18.56616211 0.49780273 C18.93741211 -0.64688477 18.93741211 -0.64688477 19.31616211 -1.81469727 C20.98228116 -1.85741827 22.64999096 -1.85533559 24.31616211 -1.81469727 C26.72024571 0.58938633 25.50162747 6.76882783 25.50366211 9.99780273 C25.5159082 11.00907227 25.5281543 12.0203418 25.54077148 13.06225586 C25.54270508 14.03743164 25.54463867 15.01260742 25.54663086 16.01733398 C25.55073975 16.91170166 25.55484863 17.80606934 25.55908203 18.72753906 C25.30181566 21.33045418 24.49356935 22.88685184 23.31616211 25.18530273 C23.64616211 25.84530273 23.97616211 26.50530273 24.31616211 27.18530273 C21.67616211 27.51530273 19.03616211 27.84530273 16.31616211 28.18530273 C16.31616211 28.84530273 16.31616211 29.50530273 16.31616211 30.18530273 C16.97616211 30.51530273 17.63616211 30.84530273 18.31616211 31.18530273 C18.64616211 31.84530273 18.97616211 32.50530273 19.31616211 33.18530273 C38.12616211 33.68030273 38.12616211 33.68030273 57.31616211 34.18530273 C57.31616211 34.51530273 57.31616211 34.84530273 57.31616211 35.18530273 C-9.01383789 35.18530273 -75.34383789 35.18530273 -143.68383789 35.18530273 C-143.68383789 34.85530273 -143.68383789 34.52530273 -143.68383789 34.18530273 C-142.50764893 34.16024658 -141.33145996 34.13519043 -140.11962891 34.109375 C-135.77169167 34.01547467 -131.42392073 33.91521225 -127.07617188 33.81298828 C-125.19144571 33.7695734 -123.30667853 33.7279033 -121.421875 33.68798828 C-118.71870541 33.6304438 -116.01574353 33.56670469 -113.31274414 33.50170898 C-112.46482803 33.48499649 -111.61691193 33.468284 -110.74330139 33.45106506 C-106.90091713 33.72121078 -106.90091713 33.72121078 -103.68383789 32.18530273 C-104.34383789 31.52530273 -105.00383789 30.86530273 -105.68383789 30.18530273 C-104.69383789 30.18530273 -103.70383789 30.18530273 -102.68383789 30.18530273 C-102.68383789 29.52530273 -102.68383789 28.86530273 -102.68383789 28.18530273 C-104.99383789 28.18530273 -107.30383789 28.18530273 -109.68383789 28.18530273 C-110.8595524 24.51119488 -110.75750536 21.0160109 -110.68383789 17.18530273 C-103.5618857 17.36791689 -98.93407722 22.24358502 -93.91430664 26.78686523 C-92.68383789 28.18530273 -92.68383789 28.18530273 -92.68383789 30.18530273 C-88.33298612 31.82767725 -84.61383153 32.47163318 -79.97290039 32.59936523 C-78.10698242 32.65737305 -78.10698242 32.65737305 -76.20336914 32.71655273 C-74.91817383 32.74749023 -73.63297852 32.77842773 -72.30883789 32.81030273 C-71.00043945 32.84897461 -69.69204102 32.88764648 -68.34399414 32.92749023 C-65.12408073 33.0215023 -61.90416909 33.10716094 -58.68383789 33.18530273 C-58.68383789 32.52530273 -58.68383789 31.86530273 -58.68383789 31.18530273 C-61.65383789 31.18530273 -64.62383789 31.18530273 -67.68383789 31.18530273 C-67.68383789 30.85530273 -67.68383789 30.52530273 -67.68383789 30.18530273 C-66.20270508 30.20270508 -66.20270508 30.20270508 -64.69165039 30.22045898 C-63.41032227 30.22948242 -62.12899414 30.23850586 -60.80883789 30.24780273 C-58.89458008 30.26520508 -58.89458008 30.26520508 -56.94165039 30.28295898 C-53.79719138 30.41706843 -53.79719138 30.41706843 -51.68383789 29.18530273 C-49.59606134 29.59900619 -47.52208111 30.08309125 -45.45727539 30.59936523 C-38.01126161 32.26479601 -30.94742754 32.64683143 -23.30883789 32.56030273 C-21.41790405 32.55051392 -21.41790405 32.55051392 -19.48876953 32.54052734 C-10.24402488 32.40783905 -1.6296726 31.53434505 7.31616211 29.18530273 C8.0522168 29.05124023 8.78827148 28.91717773 9.54663086 28.77905273 C11.80050669 28.02278535 12.6325589 26.99445136 14.06616211 25.12280273 C15.17991211 23.66874023 15.17991211 23.66874023 16.31616211 22.18530273 C15.32616211 19.71030273 15.32616211 19.71030273 14.31616211 17.18530273 C7.62907232 16.59089475 2.47429677 18.74362195 -3.68383789 21.18530273 C-12.11715014 23.99640682 -23.63883429 22.98129472 -31.68383789 19.18530273 C-32.17883789 17.70030273 -32.17883789 17.70030273 -32.68383789 16.18530273 C-33.34383789 16.18530273 -34.00383789 16.18530273 -34.68383789 16.18530273 C-36.43929038 13.60375495 -36.68666811 12.03530103 -36.74633789 8.87280273 C-35.34397038 4.00576255 -32.74544615 1.16213364 -28.68383789 -1.81469727 C-19.80482245 -4.49772435 -8.04434244 -4.88258558 0 0 Z " fill="#FCFBFB" transform="translate(193.683837890625,65.814697265625)"/>
<path d="M0 0 C1.93505761 -0.03324225 3.8698635 -0.08798949 5.80371094 -0.1640625 C21.90014216 -0.79202945 21.90014216 -0.79202945 26.70336914 2.90917969 C28.92193343 6.00858708 30.83666992 8.80009408 30.83666992 12.70019531 C26.26739054 13.42166048 23.79026604 12.26721002 20.02416992 9.88769531 C12.1897408 4.99262365 5.96869144 3.43261844 -3.22583008 3.26269531 C-4.35988281 3.22909912 -4.35988281 3.22909912 -5.5168457 3.19482422 C-11.14976528 3.21811087 -15.45895154 4.56371423 -20.16333008 7.70019531 C-24.10994238 11.95039318 -25.55658728 14.72863445 -25.42895508 20.61035156 C-24.96941705 24.22583461 -23.59858628 26.02735314 -21.16333008 28.70019531 C-10.61026772 35.86465967 1.72752907 36.28202217 14.09838867 34.13378906 C18.61587241 32.81244236 22.64935867 30.84491571 26.83666992 28.70019531 C27.82666992 28.70019531 28.81666992 28.70019531 29.83666992 28.70019531 C28.83666992 31.70019531 28.83666992 31.70019531 26.76245117 33.01660156 C15.43490829 38.4179262 6.10452837 39.89070703 -6.35083008 39.95019531 C-7.41108398 39.97082031 -8.47133789 39.99144531 -9.5637207 40.01269531 C-22.27297009 40.07465387 -33.98674724 37.11924766 -44.22583008 29.38769531 C-46.76170975 25.8701848 -47.58146933 23.02665651 -47.16333008 18.70019531 C-43.40555198 10.87149094 -36.76733149 6.55948133 -28.88598633 3.55957031 C-19.17068369 0.49304724 -10.12370003 0.12735296 0 0 Z " fill="#FF021D" transform="translate(178.163330078125,56.2998046875)"/>
<path d="M0 0 C3.71525898 0.34242018 5.23109999 2.12021891 7.54956055 4.89746094 C7.98695557 5.42629883 8.42435059 5.95513672 8.875 6.5 C21.46968276 20.89025435 41.0816779 29.37781569 59 35 C59.65629395 35.2072168 60.31258789 35.41443359 60.98876953 35.62792969 C70.02489157 38.43539228 79.12107086 40.53881708 88.4375 42.1875 C89.3049585 42.34226807 90.17241699 42.49703613 91.06616211 42.65649414 C107.635793 45.43243941 124.03189937 46.34621157 140.8125 46.25 C141.77933716 46.24689819 142.74617432 46.24379639 143.74230957 46.24060059 C157.57407455 46.18858643 171.28989444 45.99872769 185 44 C186.47436523 43.79068848 186.47436523 43.79068848 187.97851562 43.57714844 C199.91527692 41.84082522 211.52456926 39.76805189 223 36 C224.4150062 35.56393951 225.83039523 35.12912005 227.24609375 34.6953125 C241.9409754 30.10157575 259.84310903 24.15689097 271 13 C272.66617115 12.95936168 274.33388095 12.957279 276 13 C249.74586623 40.65628825 199.5410551 49.1783457 163.18554688 50.20483398 C157.86544448 50.30781684 152.54681555 50.32635457 147.22583008 50.31567383 C143.9659634 50.31252747 140.7070202 50.33602443 137.44726562 50.36132812 C96.17691197 50.48559431 42.32670481 43.73681566 11 14 C10.16984375 13.23558594 9.3396875 12.47117187 8.484375 11.68359375 C4.59229242 7.96898034 1.74093797 5.17747698 0 0 Z " fill="#054727" transform="translate(7,94)"/>
<path d="M0 0 C18.48 0 36.96 0 56 0 C53.51942372 2.48057628 52.63807536 2.29019005 49.2109375 2.4140625 C48.26992187 2.45273437 47.32890625 2.49140625 46.359375 2.53125 C45.37453125 2.5621875 44.3896875 2.593125 43.375 2.625 C41.88613281 2.68300781 41.88613281 2.68300781 40.3671875 2.7421875 C37.91177058 2.83662661 35.45591043 2.91940881 33 3 C32.67 7.62 32.34 12.24 32 17 C35.3 17 38.6 17 42 17 C41.34 17.99 40.68 18.98 40 20 C38.0546875 20.29296875 38.0546875 20.29296875 35.875 20.1875 C34.59625 20.125625 33.3175 20.06375 32 20 C32.05988141 22.12579013 32.14862744 24.25078413 32.25 26.375 C32.29640625 27.55835937 32.3428125 28.74171875 32.390625 29.9609375 C32.66124924 33.06702215 32.66124924 33.06702215 34.84375 34.375 C37.54050341 35.15666765 40.21985978 35.62088997 43 36 C43 36.33 43 36.66 43 37 C28.81 37 14.62 37 0 37 C0 36.67 0 36.34 0 36 C1.06541016 35.80083984 1.06541016 35.80083984 2.15234375 35.59765625 C3.07144531 35.42105469 3.99054687 35.24445313 4.9375 35.0625 C5.85402344 34.88847656 6.77054688 34.71445313 7.71484375 34.53515625 C9.95289844 34.22285012 9.95289844 34.22285012 11 33 C11.08775605 30.85441173 11.10695219 28.70595579 11.09765625 26.55859375 C11.09443359 25.25341797 11.09121094 23.94824219 11.08789062 22.60351562 C11.07953401 21.2148431 11.07106905 19.82617123 11.0625 18.4375 C11.05748666 17.04492344 11.05292347 15.65234519 11.04882812 14.25976562 C11.03699434 10.8398013 11.0205088 7.41992156 11 4 C7.3162378 2.45620868 3.96435532 1.55316586 0 1 C0 0.67 0 0.34 0 0 Z " fill="#FF001C" transform="translate(47,58)"/>
<path d="M0 0 C14.19 0 28.38 0 43 0 C43 0.66 43 1.32 43 2 C39.37 2.33 35.74 2.66 32 3 C31.97530425 7.09341499 31.95714207 11.18680121 31.94506836 15.28027344 C31.9400357 16.67318477 31.93320902 18.0660908 31.92456055 19.45898438 C31.91244848 21.45961246 31.90729588 23.46027888 31.90234375 25.4609375 C31.89710693 26.66540527 31.89187012 27.86987305 31.88647461 29.11083984 C31.79912109 31.9413677 31.79912109 31.9413677 33 34 C35.34907875 34.68931344 35.34907875 34.68931344 38.0625 35.125 C38.98160156 35.29257813 39.90070313 35.46015625 40.84765625 35.6328125 C41.91306641 35.81457031 41.91306641 35.81457031 43 36 C43 36.33 43 36.66 43 37 C28.81 37 14.62 37 0 37 C0 36.67 0 36.34 0 36 C1.06541016 35.80083984 1.06541016 35.80083984 2.15234375 35.59765625 C3.07144531 35.42105469 3.99054688 35.24445313 4.9375 35.0625 C5.85402344 34.88847656 6.77054688 34.71445313 7.71484375 34.53515625 C9.95289844 34.22285012 9.95289844 34.22285012 11 33 C11.08775605 30.85441173 11.10695219 28.70595579 11.09765625 26.55859375 C11.09443359 25.25341797 11.09121094 23.94824219 11.08789062 22.60351562 C11.07953401 21.2148431 11.07106905 19.82617123 11.0625 18.4375 C11.05748666 17.04492344 11.05292347 15.65234519 11.04882812 14.25976562 C11.03699434 10.8398013 11.0205088 7.41992156 11 4 C8.70370006 2.85185003 6.92301914 2.69230191 4.375 2.4375 C3.55773437 2.35371094 2.74046875 2.26992188 1.8984375 2.18359375 C1.27195313 2.12300781 0.64546875 2.06242187 0 2 C0 1.34 0 0.68 0 0 Z " fill="#FF0219" transform="translate(210,58)"/>
<path d="M0 0 C0.66 0.99 1.32 1.98 2 3 C-4.5 6 -4.5 6 -9 6 C-7.8583473 10.85202399 -5.06113733 12.94395353 -1.17578125 15.70703125 C1.83921718 17.49870895 4.57677992 18.28682915 8 19 C7.67 17.35 7.34 15.7 7 14 C7.76183594 14.39832031 8.52367187 14.79664062 9.30859375 15.20703125 C21.34752768 21.38431195 31.39317629 24.00532436 44.875 24.5625 C46.33679688 24.62727539 46.33679688 24.62727539 47.828125 24.69335938 C50.21862802 24.79882274 52.60922444 24.90094175 55 25 C53.38685929 26.93846384 52.48702534 27.90688188 49.96972656 28.38818359 C48.81682129 28.39325928 48.81682129 28.39325928 47.640625 28.3984375 C46.34765503 28.40701782 46.34765503 28.40701782 45.02856445 28.41577148 C44.11163818 28.40231689 43.19471191 28.3888623 42.25 28.375 C41.31438232 28.36992432 40.37876465 28.36484863 39.41479492 28.35961914 C32.26949346 28.23196994 25.66406041 27.2616542 18.73828125 25.55859375 C16.05144797 24.71720711 16.05144797 24.71720711 14 26 C12.68 26 11.36 26 10 26 C10 26.66 10 27.32 10 28 C5.45845522 28.08735463 0.91712768 28.14051247 -3.625 28.1875 C-5.55279297 28.22520508 -5.55279297 28.22520508 -7.51953125 28.26367188 C-9.38544922 28.27817383 -9.38544922 28.27817383 -11.2890625 28.29296875 C-13.00150146 28.31653442 -13.00150146 28.31653442 -14.74853516 28.34057617 C-18.4082852 27.95723398 -20.82933839 26.8205057 -24 25 C-24 24.34 -24 23.68 -24 23 C-24.99 22.67 -25.98 22.34 -27 22 C-27 21.34 -27 20.68 -27 20 C-27.515625 19.773125 -28.03125 19.54625 -28.5625 19.3125 C-31.33112365 17.82170265 -33.72614776 16.03020046 -36.21875 14.12109375 C-38.13722103 12.91363501 -39.78702676 12.43191802 -42 12 C-41.81870185 15.43793339 -41.81870185 15.43793339 -41 19 C-39.06402968 20.51294288 -39.06402968 20.51294288 -37 21 C-40.375 21.625 -40.375 21.625 -44 22 C-46 20 -46 20 -46.1953125 16.9609375 C-46.17210938 15.77757813 -46.14890625 14.59421875 -46.125 13.375 C-46.10695313 12.18648437 -46.08890625 10.99796875 -46.0703125 9.7734375 C-46.04710938 8.85820313 -46.02390625 7.94296875 -46 7 C-39.28840959 6.12997902 -36.02775525 7.74708089 -30.68359375 11.77978516 C-28 14 -28 14 -25.82617188 16.34570312 C-21.13438889 21.3330315 -17.84553389 23.59109929 -10.8984375 23.87890625 C-8.38910453 23.81978584 -5.88048633 23.71344846 -3.375 23.5625 C-2.08464844 23.52189453 -0.79429688 23.48128906 0.53515625 23.43945312 C3.69410513 23.33415483 6.84500239 23.18684689 10 23 C9.41412109 22.89840576 8.82824219 22.79681152 8.22460938 22.69213867 C3.17261415 21.71251162 -0.38047112 20.5483645 -4.5 17.3125 C-5.41394531 16.60609375 -6.32789063 15.8996875 -7.26953125 15.171875 C-8.17058594 14.45515625 -9.07164063 13.7384375 -10 13 C-10.89074219 12.32453125 -11.78148437 11.6490625 -12.69921875 10.953125 C-17.19950253 7.53375711 -17.19950253 7.53375711 -19 6 C-19 5.67 -19 5.34 -19 5 C-17.71222656 4.72285156 -16.42445312 4.44570312 -15.09765625 4.16015625 C-13.41922846 3.79446528 -11.74084532 3.42856928 -10.0625 3.0625 C-9.21236328 2.88009766 -8.36222656 2.69769531 -7.48632812 2.50976562 C-6.67744141 2.33251953 -5.86855469 2.15527344 -5.03515625 1.97265625 C-3.91185913 1.72914429 -3.91185913 1.72914429 -2.76586914 1.48071289 C-0.98825697 1.15377204 -0.98825697 1.15377204 0 0 Z " fill="#DCD5D6" transform="translate(125,71)"/>
<path d="M0 0 C-0.33 1.65 -0.66 3.3 -1 5 C-0.11699219 4.96519531 0.76601563 4.93039063 1.67578125 4.89453125 C9.71421778 4.71321313 16.38647991 5.48262642 24 8 C25.39403375 8.40212512 26.78963727 8.79889416 28.1875 9.1875 C29.115625 9.455625 30.04375 9.72375 31 10 C31 10.33 31 10.66 31 11 C37.93 11.33 44.86 11.66 52 12 C52 12.33 52 12.66 52 13 C44.70230425 14.1193518 37.46771672 14.21945571 30.09375 14.31640625 C28.75996314 14.33701663 27.42618221 14.35801405 26.09240723 14.37937927 C22.60730843 14.43417884 19.12215489 14.48377106 15.63696289 14.53222656 C12.07042658 14.58275215 8.5039683 14.63827493 4.9375 14.69335938 C-2.04159884 14.80042456 -9.0207684 14.90198085 -16 15 C-16.66 13.68 -17.32 12.36 -18 11 C-16.3767313 10.3291288 -14.75132422 9.66342971 -13.125 9 C-12.22007813 8.62875 -11.31515625 8.2575 -10.3828125 7.875 C-8 7 -8 7 -6 7 C-6.061875 6.21625 -6.12375 5.4325 -6.1875 4.625 C-6.125625 3.75875 -6.06375 2.8925 -6 2 C-3 0 -3 0 0 0 Z " fill="#F2F5F4" transform="translate(60,43)"/>
<path d="M0 0 C0.78697266 -0.020625 1.57394531 -0.04125 2.38476562 -0.0625 C8.07240223 -0.10001121 12.23532754 0.93272183 17.4375 3.25 C17.7675 3.58 18.0975 3.91 18.4375 4.25 C18.375 7.625 18.375 7.625 17.4375 11.25 C10.0885026 16.76174805 -0.86381528 15.38246728 -9.5625 15.25 C-9.58935412 12.93756208 -9.60882841 10.6250373 -9.625 8.3125 C-9.63660156 7.02472656 -9.64820312 5.73695312 -9.66015625 4.41015625 C-9.47111284 -1.70728858 -4.97688821 0.03152423 0 0 Z " fill="#E9E8E8" transform="translate(88.5625,59.75)"/>
<path d="M0 0 C0.66 1.32 1.32 2.64 2 4 C2.66 4 3.32 4 4 4 C4.33 4.66 4.66 5.32 5 6 C16.33017608 10.79607454 28.34339518 10.19811864 39.671875 5.97265625 C41.13482362 5.36145792 42.58189364 4.70905318 44 4 C47.5 3.75 47.5 3.75 51 4 C51.66 4.99 52.32 5.98 53 7 C52.67 7.66 52.34 8.32 52 9 C52.66 9.33 53.32 9.66 54 10 C50.43260251 15.40205906 47.93799543 17.41333688 41.5625 18.875 C39.38215018 19.28955508 37.19384058 19.66407624 35 20 C33.89398438 20.19722656 32.78796875 20.39445312 31.6484375 20.59765625 C27.36685559 21.06982214 23.34584056 20.88182359 19.0625 20.5625 C17.89364258 20.48418945 17.89364258 20.48418945 16.70117188 20.40429688 C14.80033228 20.27601936 12.90009096 20.13892679 11 20 C11 19.67 11 19.34 11 19 C12.03898438 18.87882812 13.07796875 18.75765625 14.1484375 18.6328125 C34.31356681 16.99627568 34.31356681 16.99627568 51 7 C49.948125 7.50660156 49.948125 7.50660156 48.875 8.0234375 C37.81928697 13.22082433 29.02451921 14.28182467 17 14 C16.67 13.34 16.34 12.68 16 12 C13.82037649 11.23460327 13.82037649 11.23460327 11.25 10.625 C7.05035437 9.42338466 4.01693225 8.30889343 1 5 C0.1875 2.25 0.1875 2.25 0 0 Z " fill="#E5E2E2" transform="translate(157,78)"/>
<path d="M0 0 C6.77094735 -0.8777154 9.99238144 0.81673437 15.4296875 4.78515625 C18 7 18 7 20.1328125 9.62109375 C26.02439629 16.50126532 30.50829023 17.63192861 39.40844727 18.40307617 C44.93849515 18.72782671 50.46072113 18.9401286 56 19 C56 19.66 56 20.32 56 21 C51.45845522 21.08735463 46.91712768 21.14051247 42.375 21.1875 C40.44720703 21.22520508 40.44720703 21.22520508 38.48046875 21.26367188 C36.61455078 21.27817383 36.61455078 21.27817383 34.7109375 21.29296875 C32.99849854 21.31653442 32.99849854 21.31653442 31.25146484 21.34057617 C27.5917148 20.95723398 25.17066161 19.8205057 22 18 C22 17.34 22 16.68 22 16 C21.01 15.67 20.02 15.34 19 15 C19 14.34 19 13.68 19 13 C18.484375 12.773125 17.96875 12.54625 17.4375 12.3125 C14.66887635 10.82170265 12.27385224 9.03020046 9.78125 7.12109375 C7.86277897 5.91363501 6.21297324 5.43191802 4 5 C4.18129815 8.43793339 4.18129815 8.43793339 5 12 C6.93597032 13.51294288 6.93597032 13.51294288 9 14 C5.625 14.625 5.625 14.625 2 15 C0 13 0 13 -0.1953125 9.9609375 C-0.17210938 8.77757813 -0.14890625 7.59421875 -0.125 6.375 C-0.10695313 5.18648438 -0.08890625 3.99796875 -0.0703125 2.7734375 C-0.04710938 1.85820313 -0.02390625 0.94296875 0 0 Z " fill="#DFDEDE" transform="translate(79,78)"/>
<path d="M0 0 C0.495 1.98 0.495 1.98 1 4 C-1.62346892 6.62346892 -3.5225674 6.25936502 -7.09580994 6.30354309 C-8.34582542 6.30217598 -8.34582542 6.30217598 -9.62109375 6.30078125 C-10.904645 6.30720894 -10.904645 6.30720894 -12.21412659 6.31376648 C-14.02563593 6.31951468 -15.83716836 6.32000644 -17.64868164 6.31567383 C-20.42308905 6.3125164 -23.19642786 6.33595741 -25.97070312 6.36132812 C-27.72916532 6.36360129 -29.48763039 6.36430453 -31.24609375 6.36328125 C-32.07741318 6.372491 -32.9087326 6.38170074 -33.76524353 6.39118958 C-39.57057927 6.34447863 -39.57057927 6.34447863 -41.74305725 4.60173035 C-43 3 -43 3 -43 1 C-28.81 0.67 -14.62 0.34 0 0 Z " fill="#EDEDEE" transform="translate(253,94)"/>
<path d="M0 0 C0.495 3.465 0.495 3.465 1 7 C0.60035538 6.51169708 0.20071075 6.02339417 -0.21104431 5.52029419 C-2.50126197 3.57401647 -3.64880375 3.64028293 -6.62329102 3.67529297 C-7.55758438 3.67874725 -8.49187775 3.68220154 -9.45448303 3.6857605 C-10.46079269 3.70438141 -11.46710236 3.72300232 -12.50390625 3.7421875 C-13.53813217 3.74880402 -14.57235809 3.75542053 -15.63792419 3.76223755 C-18.94641639 3.78567602 -22.25424515 3.829402 -25.5625 3.875 C-28.87424568 3.91001955 -32.18595513 3.94080711 -35.49778748 3.96633911 C-37.56007457 3.98336395 -39.62232147 4.00654434 -41.6844635 4.03634644 C-43.08117531 4.05098434 -43.08117531 4.05098434 -44.50610352 4.06591797 C-45.32756363 4.07718719 -46.14902374 4.08845642 -46.99537659 4.10006714 C-49 4 -49 4 -51 3 C-52.88484944 3.24621907 -54.76022087 3.56888087 -56.625 3.9375 C-58.12933594 4.22947266 -58.12933594 4.22947266 -59.6640625 4.52734375 C-60.43492187 4.68332031 -61.20578125 4.83929688 -62 5 C-49.24947767 -7.75052233 -16.08743969 -0.93843398 0 0 Z " fill="#EBEAEA" transform="translate(204,54)"/>
<path d="M0 0 C0.495 1.98 0.495 1.98 1 4 C-1 6 -1 6 -4.89892578 6.22705078 C-6.58108793 6.22673341 -8.26327019 6.21539396 -9.9453125 6.1953125 C-10.8303244 6.1924826 -11.7153363 6.18965271 -12.62716675 6.18673706 C-15.45991412 6.1755224 -18.29234784 6.1504157 -21.125 6.125 C-23.04296419 6.11497185 -24.96093333 6.10584572 -26.87890625 6.09765625 C-31.58605876 6.07557889 -36.29297616 6.04104045 -41 6 C-41 5.34 -41 4.68 -41 4 C-41.66 3.67 -42.32 3.34 -43 3 C-43 2.34 -43 1.68 -43 1 C-28.81 0.67 -14.62 0.34 0 0 Z " fill="#EDEDEE" transform="translate(90,94)"/>
<path d="M0 0 C1.22696342 -0.04830208 1.22696342 -0.04830208 2.47871399 -0.09757996 C6.20649622 -0.20910039 9.93415888 -0.29054086 13.66308594 -0.35253906 C15.62552086 -0.39426536 17.58763862 -0.45569905 19.54882812 -0.53710938 C35.87164838 -1.20287069 35.87164838 -1.20287069 40.68579102 2.47680664 C42.90485593 5.58059313 44.80151367 8.36960103 44.80151367 12.2722168 C40.23223429 12.99368196 37.75510979 11.8392315 33.98901367 9.4597168 C26.06684898 4.5098266 19.90860066 3.0250402 10.61401367 2.9597168 C9.8412207 2.95407715 9.06842773 2.9484375 8.2722168 2.94262695 C3.74190024 3.00028197 0.06499503 3.56546429 -4.19848633 5.2722168 C-4.19848633 4.6122168 -4.19848633 3.9522168 -4.19848633 3.2722168 C-5.51848633 2.6122168 -6.83848633 1.9522168 -8.19848633 1.2722168 C-5.42648441 0.50170372 -2.87266138 0.11208346 0 0 Z " fill="#FF0720" transform="translate(164.198486328125,56.727783203125)"/>
<path d="M0 0 C2.20639365 2.20639365 2.57315957 3.43526587 3.4375 6.375 C4.50559902 9.75913006 5.56818052 12.33657867 8 15 C6.68 14.67 5.36 14.34 4 14 C4 14.99 4 15.98 4 17 C-2.59005326 16.25251711 -6.61367367 14.23468256 -11.56640625 9.8515625 C-13 8 -13 8 -13 4 C-11.2097939 3.32942113 -9.41778511 2.6636531 -7.625 2 C-6.62726563 1.62875 -5.62953125 1.2575 -4.6015625 0.875 C-2 0 -2 0 0 0 Z " fill="#EAE6E7" transform="translate(129,73)"/>
<path d="M0 0 C2.27057377 -0.05398987 4.54151288 -0.09278742 6.8125 -0.125 C8.07707031 -0.14820313 9.34164062 -0.17140625 10.64453125 -0.1953125 C14 0 14 0 17 2 C16.01 2.33 15.02 2.66 14 3 C14.99 3.33 15.98 3.66 17 4 C17.6875 6.0625 17.6875 6.0625 18 8 C11.19877155 11.13902852 5.43378943 11.33452052 -2 11 C-2.1875 5.234375 -2.1875 5.234375 -0.5 3.125 C-0.005 2.75375 0.49 2.3825 1 2 C0.67 1.34 0.34 0.68 0 0 Z " fill="#F9F9F9" transform="translate(84,60)"/>
<path d="M0 0 C3.69230769 0.69230769 3.69230769 0.69230769 5 2 C5.21789186 6.11577589 5.18579188 10.23464923 5.18530273 14.35571289 C5.18748734 16.42550264 5.20563491 18.49475793 5.22460938 20.56445312 C5.22750977 22.51061523 5.22750977 22.51061523 5.23046875 24.49609375 C5.23457764 25.69419678 5.23868652 26.8922998 5.24291992 28.12670898 C5 31 5 31 3 33 C0.6171875 33.4140625 0.6171875 33.4140625 -2.125 33.625 C-3.03507812 33.69976562 -3.94515625 33.77453125 -4.8828125 33.8515625 C-5.58148438 33.90054688 -6.28015625 33.94953125 -7 34 C-7.33 33.34 -7.66 32.68 -8 32 C-7.67 31.34 -7.34 30.68 -7 30 C-3.04 29.505 -3.04 29.505 1 29 C1 20.09 1 11.18 1 2 C0.34 1.67 -0.32 1.34 -1 1 C-0.67 0.67 -0.34 0.34 0 0 Z " fill="#E8E1E3" transform="translate(54,60)"/>
<path d="M0 0 C6.258654 -0.5326514 10.45108785 1.18150494 16 4 C16 3.34 16 2.68 16 2 C13.525 1.505 13.525 1.505 11 1 C14.5394887 -0.17982957 15.39930003 0.2768803 18.875 1.375 C28.05260144 3.8563515 37.54557662 3.75952071 47 4 C45.38685929 5.93846384 44.48702534 6.90688188 41.96972656 7.38818359 C40.81682129 7.39325928 40.81682129 7.39325928 39.640625 7.3984375 C38.34765503 7.40701782 38.34765503 7.40701782 37.02856445 7.41577148 C35.65317505 7.3955896 35.65317505 7.3955896 34.25 7.375 C33.31438232 7.36992432 32.37876465 7.36484863 31.41479492 7.35961914 C24.26949346 7.23196994 17.66406041 6.2616542 10.73828125 4.55859375 C8.05144797 3.71720711 8.05144797 3.71720711 6 5 C3.67418703 5.01644664 1.3477536 4.9639422 -0.9765625 4.87890625 C-1.66181 4.85529526 -2.3470575 4.83168427 -3.05307007 4.80735779 C-5.24392416 4.73072143 -7.43442472 4.64669754 -9.625 4.5625 C-11.10935764 4.50927924 -12.59373259 4.45653884 -14.078125 4.40429688 C-17.71896737 4.2751067 -21.35952844 4.13928926 -25 4 C-25 3.67 -25 3.34 -25 3 C-16.09 2.67 -7.18 2.34 2 2 C1.34 1.34 0.68 0.68 0 0 Z " fill="#E6D5D7" transform="translate(133,92)"/>
<path d="M0 0 C-3 2 -3 2 -5.4375 2.875 C-8.555291 4.24378629 -10.04764009 5.17992458 -12 8 C-12.95529246 13.57253933 -12.2495032 18.29382295 -9 23 C-1.81275025 28.7497998 8.24223698 28.49269056 17 29 C17 29.33 17 29.66 17 30 C5.74295232 31.28492356 -3.0640932 31.76880859 -12.5 24.5 C-16.16196032 20.83803968 -16.87228061 19.31976708 -17.375 14.125 C-17.25407123 9.78768794 -15.81119712 7.34304522 -13 4 C-8.1660299 -0.25849747 -6.33876344 -1.24019285 0 0 Z " fill="#DFCBCF" transform="translate(169,61)"/>
<path d="M0 0 C1.9375 0.375 1.9375 0.375 4 1 C4.33 1.66 4.66 2.32 5 3 C6.03060547 2.96519531 6.03060547 2.96519531 7.08203125 2.9296875 C8.43361328 2.90261719 8.43361328 2.90261719 9.8125 2.875 C10.70582031 2.85179687 11.59914062 2.82859375 12.51953125 2.8046875 C15 3 15 3 18 5 C18.34057617 7.88916016 18.34057617 7.88916016 18.29296875 11.5390625 C18.28330078 12.84101562 18.27363281 14.14296875 18.26367188 15.484375 C18.23860388 16.86458923 18.21320902 18.24479756 18.1875 19.625 C18.17245517 21.01300663 18.15876641 22.40102867 18.14648438 23.7890625 C18.1110257 27.19309509 18.06160298 30.59635622 18 34 C16.68 34.66 15.36 35.32 14 36 C13.34 35.34 12.68 34.68 12 34 C12.32597168 33.44731445 12.65194336 32.89462891 12.98779297 32.32519531 C14.16480959 29.621407 14.22949426 27.73650594 14.1953125 24.796875 C14.18886719 23.8171875 14.18242187 22.8375 14.17578125 21.828125 C14.15902344 20.81234375 14.14226562 19.7965625 14.125 18.75 C14.11597656 17.71875 14.10695312 16.6875 14.09765625 15.625 C14.07412011 13.08309713 14.04124023 10.5416672 14 8 C11.36 7.01 8.72 6.02 6 5 C5.67 6.32 5.34 7.64 5 9 C4.34 9 3.68 9 3 9 C0 2.25 0 2.25 0 0 Z " fill="#E6D1D4" transform="translate(204,57)"/>
<path d="M0 0 C1.14726562 0.00902344 2.29453125 0.01804687 3.4765625 0.02734375 C4.91128906 0.04474609 4.91128906 0.04474609 6.375 0.0625 C7.035 0.0625 7.695 0.0625 8.375 0.0625 C9.71283393 0.37728446 11.04703709 0.70837656 12.375 1.0625 C13 3.4375 13 3.4375 13.375 6.0625 C12.715 6.7225 12.055 7.3825 11.375 8.0625 C10.03658328 7.75020276 8.70360925 7.41419068 7.375 7.0625 C5.18796615 7.44157282 5.18796615 7.44157282 3.375 8.0625 C3.045 6.4125 2.715 4.7625 2.375 3.0625 C2.045 4.3825 1.715 5.7025 1.375 7.0625 C0.715 7.0625 0.055 7.0625 -0.625 7.0625 C-0.955 5.7425 -1.285 4.4225 -1.625 3.0625 C-2.945 2.7325 -4.265 2.4025 -5.625 2.0625 C-5.295 3.7125 -4.965 5.3625 -4.625 7.0625 C-7.625 7.0625 -10.625 7.0625 -13.625 7.0625 C-14.625 6.0625 -14.625 6.0625 -14.6875 3.5 C-14.666875 2.695625 -14.64625 1.89125 -14.625 1.0625 C-13.965 1.0625 -13.305 1.0625 -12.625 1.0625 C-12.625 2.7125 -12.625 4.3625 -12.625 6.0625 C-11.965 6.0625 -11.305 6.0625 -10.625 6.0625 C-10.625 4.4125 -10.625 2.7625 -10.625 1.0625 C-7.05088664 -0.05551083 -3.7280926 -0.03787002 0 0 Z " fill="#FF98A9" transform="translate(238.625,105.9375)"/>
<path d="M0 0 C2.13150633 -0.03785044 4.26278878 -0.06538739 6.39450073 -0.08804321 C7.47102905 -0.10310913 8.54755737 -0.11817505 9.65670776 -0.13369751 C13.92252221 0.15795208 16.08930198 1.26516876 19.32418823 4.04867554 C20.76168823 6.79867554 20.76168823 6.79867554 21.32418823 9.04867554 C19.50127157 8.07211304 17.6783549 7.09555054 15.85543823 6.11898804 C7.51242617 2.59123293 -0.74696874 2.70804801 -9.67581177 2.63461304 C-11.12170484 2.61587494 -12.56758728 2.59629961 -14.01345825 2.57592773 C-17.79446101 2.52487917 -21.57549912 2.4851087 -25.35665894 2.44778442 C-29.22484891 2.40757243 -33.09289532 2.35655908 -36.96096802 2.30648804 C-44.53248365 2.21005233 -52.10406951 2.12554553 -59.67581177 2.04867554 C-59.67581177 1.71867554 -59.67581177 1.38867554 -59.67581177 1.04867554 C-52.50302428 0.91668025 -45.33021088 0.78619524 -38.15736294 0.65752411 C-34.82503845 0.59770172 -31.49272815 0.53725352 -28.16043091 0.47592163 C-20.71120525 0.3389822 -13.26195001 0.20991083 -5.81231689 0.09710693 C-3.87483852 0.06718995 -1.93738882 0.03524293 0 0 Z " fill="#F0C1C7" transform="translate(106.67581176757813,55.951324462890625)"/>
<path d="M0 0 C0.76666992 -0.00064453 1.53333984 -0.00128906 2.32324219 -0.00195312 C6.37149451 0.03880731 10.21517602 0.40800157 14.1875 1.1875 C14.1875 1.5175 14.1875 1.8475 14.1875 2.1875 C6.78694611 3.0923855 -0.49463094 3.32129996 -7.9453125 3.28515625 C-9.06316132 3.2837413 -10.18101013 3.28232635 -11.33273315 3.28086853 C-14.86768383 3.27531622 -18.40256879 3.26277279 -21.9375 3.25 C-24.34895741 3.24497883 -26.76041583 3.24041701 -29.171875 3.23632812 C-35.05210537 3.22536246 -40.93229799 3.20867253 -46.8125 3.1875 C-46.8125 2.8575 -46.8125 2.5275 -46.8125 2.1875 C-12.16244647 -0.00953543 -12.16244647 -0.00953543 0 0 Z " fill="#003C1E" transform="translate(171.8125,140.8125)"/>
<path d="M0 0 C0.66 0.99 1.32 1.98 2 3 C1.34 3 0.68 3 0 3 C0.33 4.32 0.66 5.64 1 7 C0.01 7.33 -0.98 7.66 -2 8 C-4 7 -4 7 -5 4 C-5.66 4 -6.32 4 -7 4 C-7.33 5.32 -7.66 6.64 -8 8 C-25 8 -25 8 -28 6 C-27.34 5.67 -26.68 5.34 -26 5 C-26.66 4.67 -27.32 4.34 -28 4 C-27.67 3.01 -27.34 2.02 -27 1 C-27 1.66 -27 2.32 -27 3 C-25.02 3.495 -25.02 3.495 -23 4 C-22.67 3.01 -22.34 2.02 -22 1 C-21.67 1 -21.34 1 -21 1 C-21 2.65 -21 4.3 -21 6 C-19.35 5.67 -17.7 5.34 -16 5 C-15.67 3.68 -15.34 2.36 -15 1 C-14.34 1 -13.68 1 -13 1 C-12.67 2.65 -12.34 4.3 -12 6 C-11.34 6 -10.68 6 -10 6 C-10 4.35 -10 2.7 -10 1 C-6.61292998 0.22581257 -3.47338282 -0.37550085 0 0 Z " fill="#FF6D87" transform="translate(95,106)"/>
<path d="M0 0 C3.15530603 0.24440305 6.29057477 0.54642671 9.4375 0.875 C20.09881776 1.90940425 30.73560244 2.3447112 41.4375 2.625 C42.2100412 2.64528259 42.9825824 2.66556519 43.77853394 2.6864624 C48.18550015 2.80000988 52.59261286 2.90395808 57 3 C57 3.33 57 3.66 57 4 C45.18935102 4.62083098 33.39103287 5.10177834 21.5625 5.125 C20.1537561 5.13176758 20.1537561 5.13176758 18.71655273 5.13867188 C3.28382977 5.10533686 3.28382977 5.10533686 -1 1 C-0.67 0.67 -0.34 0.34 0 0 Z " fill="#0F5636" transform="translate(103,138)"/>
<path d="M0 0 C0.66 0.66 1.32 1.32 2 2 C0.02 2.99 0.02 2.99 -2 4 C-2 4.66 -2 5.32 -2 6 C-2.66 6 -3.32 6 -4 6 C-4 6.66 -4 7.32 -4 8 C-15.32487995 12.89780392 -27.02185572 12.06153614 -39 11 C-39 10.67 -39 10.34 -39 10 C-37.44152344 9.81824219 -37.44152344 9.81824219 -35.8515625 9.6328125 C-17.05875597 7.64177642 -17.05875597 7.64177642 0 0 Z " fill="#E8DCDE" transform="translate(207,87)"/>
<path d="M0 0 C-0.33 0.66 -0.66 1.32 -1 2 C-1.66 1.67 -2.32 1.34 -3 1 C-3 2.32 -3 3.64 -3 5 C-2.01 4.67 -1.02 4.34 0 4 C0 4.66 0 5.32 0 6 C-7.75 6.125 -7.75 6.125 -10 5 C-10 5.66 -10 6.32 -10 7 C-11.65 7 -13.3 7 -15 7 C-15 6.01 -15 5.02 -15 4 C-15.66 4 -16.32 4 -17 4 C-17 4.66 -17 5.32 -17 6 C-18.65 5.67 -20.3 5.34 -22 5 C-22 4.34 -22 3.68 -22 3 C-22.66 3 -23.32 3 -24 3 C-23.67 3.99 -23.34 4.98 -23 6 C-23.66 6 -24.32 6 -25 6 C-25 4.02 -25 2.04 -25 0 C-23 0 -21 0 -19 0 C-18.67 0.66 -18.34 1.32 -18 2 C-17.67 1.34 -17.34 0.68 -17 0 C-16.01 0.33 -15.02 0.66 -14 1 C-13.67 1.99 -13.34 2.98 -13 4 C-12.67 2.68 -12.34 1.36 -12 0 C-10.68 0 -9.36 0 -8 0 C-7.01 -0.2784375 -7.01 -0.2784375 -6 -0.5625 C-3.67354625 -1.07141176 -2.24285752 -0.72091849 0 0 Z " fill="#FF5E77" transform="translate(169,107)"/>
<path d="M0 0 C0.55719727 0.15847412 1.11439453 0.31694824 1.68847656 0.48022461 C4.15877011 1.03570147 6.45553604 1.208468 8.984375 1.31640625 C10.38623047 1.37924805 10.38623047 1.37924805 11.81640625 1.44335938 C12.78449219 1.48267578 13.75257812 1.52199219 14.75 1.5625 C15.73355469 1.60568359 16.71710938 1.64886719 17.73046875 1.69335938 C20.15351275 1.79922052 22.5766554 1.90130171 25 2 C25 2.33 25 2.66 25 3 C18.67771145 3.93988755 12.54226642 4.13181516 6.15625 4.09765625 C5.14655151 4.0962413 4.13685303 4.09482635 3.09655762 4.09336853 C-0.10232611 4.08780781 -3.30113772 4.0752627 -6.5 4.0625 C-8.67968648 4.05747992 -10.85937407 4.0529179 -13.0390625 4.04882812 C-18.35939926 4.03785128 -23.67969448 4.02115268 -29 4 C-29.33 3.34 -29.66 2.68 -30 2 C-15.15 1.505 -15.15 1.505 0 1 C0 0.67 0 0.34 0 0 Z " fill="#DAE1E0" transform="translate(87,53)"/>
<path d="M0 0 C14.19 0 28.38 0 43 0 C38.60752696 3.29435478 36.27929994 3.44143413 31.09375 3.3984375 C30.33203491 3.40130768 29.57031982 3.40417786 28.78552246 3.40713501 C27.17845921 3.40917234 25.57137098 3.40366558 23.96435547 3.39111328 C21.5082236 3.37505377 19.05373711 3.39097196 16.59765625 3.41015625 C15.03385054 3.40817376 13.47004586 3.40432996 11.90625 3.3984375 C10.80766663 3.40754654 10.80766663 3.40754654 9.68688965 3.4168396 C5.03149316 3.35280642 3.9334273 2.95007047 0 0 Z " fill="#E7BCC3" transform="translate(210,95)"/>
<path d="M0 0 C0.495 0.99 0.495 0.99 1 2 C-2.8109111 4.50589851 -6.72700333 4.30609554 -11.125 4.30078125 C-12.3008667 4.30720894 -12.3008667 4.30720894 -13.50048828 4.31376648 C-15.15461259 4.31949853 -16.80876209 4.32001833 -18.46289062 4.31567383 C-20.9913226 4.31251086 -23.51858733 4.33599606 -26.046875 4.36132812 C-27.65624853 4.36360097 -29.26562519 4.36430468 -30.875 4.36328125 C-32.00639404 4.37709587 -32.00639404 4.37709587 -33.16064453 4.39118958 C-37.87785021 4.34966157 -39.02515681 3.98113239 -43 1 C-28.81 0.67 -14.62 0.34 0 0 Z " fill="#E8BAC2" transform="translate(90,94)"/>
<path d="M0 0 C9.24 0 18.48 0 28 0 C28 0.33 28 0.66 28 1 C31.3 1.33 34.6 1.66 38 2 C38 2.33 38 2.66 38 3 C23.81 3 9.62 3 -5 3 C-5 2.67 -5 2.34 -5 2 C-3.35 1.67 -1.7 1.34 0 1 C0 0.67 0 0.34 0 0 Z " fill="#E9C3C8" transform="translate(215,55)"/>
<path d="M0 0 C1.485 0.99 1.485 0.99 3 2 C3.30883789 4.67382812 3.30883789 4.67382812 3.22265625 8.03125 C3.19461914 9.83529297 3.19461914 9.83529297 3.16601562 11.67578125 C3.13185547 12.93777344 3.09769531 14.19976562 3.0625 15.5 C3.00274461 17.9893841 2.95151878 20.47899237 2.91015625 22.96875 C2.88058838 24.07669922 2.85102051 25.18464844 2.82055664 26.32617188 C2.71574295 29.15452403 2.71574295 29.15452403 5 31 C3.68 31.33 2.36 31.66 1 32 C-1.34479915 28.48280128 -1.24596434 27.02968535 -1.23046875 22.87109375 C-1.22853516 21.67162109 -1.22660156 20.47214844 -1.22460938 19.23632812 C-1.21236328 17.98271484 -1.20011719 16.72910156 -1.1875 15.4375 C-1.18685547 14.18001953 -1.18621094 12.92253906 -1.18554688 11.62695312 C-1.14029824 2.28059648 -1.14029824 2.28059648 0 0 Z " fill="#E2C2C8" transform="translate(242,61)"/>
<path d="M0 0 C0 1.65 0 3.3 0 5 C0.99 5.33 1.98 5.66 3 6 C2.67 6.66 2.34 7.32 2 8 C-1.375 8.8125 -1.375 8.8125 -5 9 C-6.5 7.625 -6.5 7.625 -8 6 C-11.61023099 5.26958147 -11.61023099 5.26958147 -15 5 C-14.67 4.01 -14.34 3.02 -14 2 C-10.6875 0.875 -10.6875 0.875 -7 0 C-6.2575 -0.226875 -5.515 -0.45375 -4.75 -0.6875 C-3 -1 -3 -1 0 0 Z " fill="#09542E" transform="translate(285,80)"/>
<path d="M0 0 C1.98 0 3.96 0 6 0 C6.33 0.66 6.66 1.32 7 2 C7.33 1.34 7.66 0.68 8 0 C11.96 0 15.92 0 20 0 C20.33 0.66 20.66 1.32 21 2 C20.01 2 19.02 2 18 2 C18 3.32 18 4.64 18 6 C18.99 6.33 19.98 6.66 21 7 C20.01 7.33 19.02 7.66 18 8 C17.34 7.67 16.68 7.34 16 7 C16 5.35 16 3.7 16 2 C15.34 2 14.68 2 14 2 C14 3.65 14 5.3 14 7 C13.34 7 12.68 7 12 7 C12 5.35 12 3.7 12 2 C9.48916886 3.25541557 9.12874554 4.50063488 8 7 C7.34 6.34 6.68 5.68 6 5 C5.34 5.66 4.68 6.32 4 7 C4 5.35 4 3.7 4 2 C3.34 2 2.68 2 2 2 C2 3.65 2 5.3 2 7 C1.34 7 0.68 7 0 7 C0 4.69 0 2.38 0 0 Z " fill="#FF6383" transform="translate(122,106)"/>
<path d="M0 0 C0.83088638 -0.01606293 1.66177277 -0.03212585 2.51783752 -0.04867554 C6.28499261 -0.09328908 10.05197887 -0.13412735 13.81933594 -0.15722656 C15.80871227 -0.17384407 17.79802751 -0.20120949 19.78710938 -0.23925781 C22.65778496 -0.29384693 25.52706974 -0.31586522 28.39819336 -0.33056641 C29.28886002 -0.35323578 30.17952667 -0.37590515 31.09718323 -0.39926147 C33.42140699 -0.39125876 35.47899905 -0.35502237 37.73803711 0.19287109 C39.82177734 2.72558594 39.82177734 2.72558594 40.73803711 5.19287109 C39.74803711 4.86287109 38.75803711 4.53287109 37.73803711 4.19287109 C37.73803711 3.53287109 37.73803711 2.87287109 37.73803711 2.19287109 C36.1022168 2.30115234 36.1022168 2.30115234 34.43334961 2.41162109 C25.52249083 2.96879895 16.68363471 3.31770147 7.75415039 3.06787109 C3.33328666 2.99474861 -0.15623661 3.54670726 -4.26196289 5.19287109 C-4.26196289 4.53287109 -4.26196289 3.87287109 -4.26196289 3.19287109 C-5.58196289 2.53287109 -6.90196289 1.87287109 -8.26196289 1.19287109 C-5.45242091 0.40209934 -2.91533301 0.05148678 0 0 Z " fill="#FF1234" transform="translate(164.261962890625,56.80712890625)"/>
<path d="M0 0 C3.3 0.33 6.6 0.66 10 1 C7.77077045 3.22922955 5.90864722 3.88128953 3 5 C1.34920558 6.65079442 1.77450553 8.63736179 1.68359375 10.91015625 C1.64169922 11.89951172 1.59980469 12.88886719 1.55664062 13.90820312 C1.49766602 15.46958008 1.49766602 15.46958008 1.4375 17.0625 C1.39431641 18.10728516 1.35113281 19.15207031 1.30664062 20.22851562 C1.20018775 22.81886884 1.0981724 25.40932186 1 28 C3.97 28.99 6.94 29.98 10 31 C9.505 32.485 9.505 32.485 9 34 C6.125 34.125 6.125 34.125 3 34 C0.59643239 31.59643239 0.03153053 30.73822125 -0.11352539 27.34204102 C-0.10828857 26.24045654 -0.10305176 25.13887207 -0.09765625 24.00390625 C-0.09443359 22.80572266 -0.09121094 21.60753906 -0.08789062 20.37304688 C-0.07951172 19.11556641 -0.07113281 17.85808594 -0.0625 16.5625 C-0.05798828 15.30888672 -0.05347656 14.05527344 -0.04882812 12.76367188 C-0.04008114 10.43822292 -0.02929127 8.11278019 -0.01586914 5.78735352 C-0.0048863 3.85825969 0 1.92912509 0 0 Z " fill="#E6E3E4" transform="translate(244,60)"/>
<path d="M0 0 C0 0.66 0 1.32 0 2 C-12.06504856 4.47488176 -23.80307439 4.57379685 -36 3 C-36 2.67 -36 2.34 -36 2 C-35.3702124 1.94465088 -34.7404248 1.88930176 -34.09155273 1.83227539 C-31.20669312 1.57762764 -28.32209868 1.32008608 -25.4375 1.0625 C-24.44685547 0.97548828 -23.45621094 0.88847656 -22.43554688 0.79882812 C-16.21679886 0.24132669 -16.21679886 0.24132669 -10.03125 -0.59375 C-6.49687498 -1.06742913 -3.49255403 -0.64148952 0 0 Z " fill="#105536" transform="translate(206,138)"/>
<path d="M0 0 C0.66 0.99 1.32 1.98 2 3 C-4.5 6 -4.5 6 -9 6 C-7.87548273 8.9719385 -6.77706209 11.33440687 -5 14 C-9.19499396 13.46351765 -11.54248558 12.14637983 -14.8125 9.5 C-15.60269531 8.8709375 -16.39289063 8.241875 -17.20703125 7.59375 C-17.79871094 7.0678125 -18.39039062 6.541875 -19 6 C-19 5.67 -19 5.34 -19 5 C-17.71222656 4.72285156 -16.42445312 4.44570312 -15.09765625 4.16015625 C-13.41922846 3.79446528 -11.74084532 3.42856928 -10.0625 3.0625 C-9.21236328 2.88009766 -8.36222656 2.69769531 -7.48632812 2.50976562 C-6.67744141 2.33251953 -5.86855469 2.15527344 -5.03515625 1.97265625 C-3.91185913 1.72914429 -3.91185913 1.72914429 -2.76586914 1.48071289 C-0.98825697 1.15377204 -0.98825697 1.15377204 0 0 Z " fill="#DFC9CD" transform="translate(125,71)"/>
<path d="M0 0 C-1 3 -1 3 -3.07421875 4.31640625 C-16.06126632 10.50903432 -16.06126632 10.50903432 -22 10 C-22.33 9.67 -22.66 9.34 -23 9 C-24.34747084 8.76924918 -25.70377565 8.58846937 -27.0625 8.4375 C-28.361875 8.293125 -29.66125 8.14875 -31 8 C-31 7.67 -31 7.34 -31 7 C-29.44152344 6.85304688 -29.44152344 6.85304688 -27.8515625 6.703125 C-18.53842438 5.73649859 -8.64676573 0 0 0 Z " fill="#FF1B38" transform="translate(208,85)"/>
<path d="M0 0 C3.69230769 0.69230769 3.69230769 0.69230769 5 2 C5.24166663 6.1152898 5.22849275 10.23391265 5.24023438 14.35571289 C5.24994465 16.42570099 5.28095712 18.49469815 5.3125 20.56445312 C5.31765625 21.86189453 5.3228125 23.15933594 5.328125 24.49609375 C5.34214355 26.29324829 5.34214355 26.29324829 5.35644531 28.12670898 C5.23881836 29.07489502 5.12119141 30.02308105 5 31 C4.01 31.66 3.02 32.32 2 33 C1.34 32.34 0.68 31.68 0 31 C0.32145996 30.45182617 0.64291992 29.90365234 0.97412109 29.33886719 C2.16900783 26.61468467 2.31514007 24.5457978 2.4140625 21.578125 C2.45273437 20.55332031 2.49140625 19.52851562 2.53125 18.47265625 C2.5621875 17.40917969 2.593125 16.34570312 2.625 15.25 C2.66367187 14.17105469 2.70234375 13.09210938 2.7421875 11.98046875 C2.83634631 9.32048225 2.92197387 6.6605006 3 4 C2.34 4 1.68 4 1 4 C1 3.34 1 2.68 1 2 C0.34 1.67 -0.32 1.34 -1 1 C-0.67 0.67 -0.34 0.34 0 0 Z " fill="#E1D6D8" transform="translate(54,60)"/>
<path d="M0 0 C0.66 0.33 1.32 0.66 2 1 C1.01 1.33 0.02 1.66 -1 2 C-1.33 2.99 -1.66 3.98 -2 5 C-4.40014337 6.21634886 -6.68778543 7.22789393 -9.1875 8.1875 C-9.84814453 8.46013672 -10.50878906 8.73277344 -11.18945312 9.01367188 C-15.23154197 10.60576807 -18.58804518 11.50328966 -23 11 C-23.66 10.34 -24.32 9.68 -25 9 C-23.78183594 8.60167969 -22.56367188 8.20335937 -21.30859375 7.79296875 C-19.68484214 7.25797544 -18.06114722 6.72281004 -16.4375 6.1875 C-15.63763672 5.92646484 -14.83777344 5.66542969 -14.01367188 5.39648438 C-10.26806662 4.15814141 -6.6270037 2.87449488 -3.03515625 1.23828125 C-2.03355469 0.82964844 -1.03195313 0.42101562 0 0 Z " fill="#145736" transform="translate(255,121)"/>
<path d="M0 0 C0.99 3.63 1.98 7.26 3 11 C2.01 11.495 2.01 11.495 1 12 C-2.45087996 10.21293716 -5.25853216 8.74146784 -8 6 C-7.875 4 -7.875 4 -7 2 C-4.41847698 0.27898465 -3.15081975 0 0 0 Z " fill="#F9F8F9" transform="translate(127,76)"/>
<path d="M0 0 C5.78426197 -0.51415662 9.9849834 0.88224981 15.3515625 3.02734375 C17.89927865 3.96300941 20.32949242 4.54206097 23 5 C23 5.33 23 5.66 23 6 C18.95718521 6.16845062 15.60152172 6.00365948 11.6875 4.9375 C8.20599947 3.62457897 8.20599947 3.62457897 6 5 C3.67418703 5.01644664 1.3477536 4.9639422 -0.9765625 4.87890625 C-1.66181 4.85529526 -2.3470575 4.83168427 -3.05307007 4.80735779 C-5.24392416 4.73072143 -7.43442472 4.64669754 -9.625 4.5625 C-11.10935764 4.50927924 -12.59373259 4.45653884 -14.078125 4.40429688 C-17.71896737 4.2751067 -21.35952844 4.13928926 -25 4 C-25 3.67 -25 3.34 -25 3 C-16.09 2.67 -7.18 2.34 2 2 C1.34 1.34 0.68 0.68 0 0 Z " fill="#F3C2CA" transform="translate(133,92)"/>
<path d="M0 0 C2.33333333 0 4.66666667 0 7 0 C7.33 0.99 7.66 1.98 8 3 C8.66 2.01 9.32 1.02 10 0 C10.66 0 11.32 0 12 0 C12.33 1.98 12.66 3.96 13 6 C3.58997722 7.14806378 3.58997722 7.14806378 -1 7 C-0.67 4.69 -0.34 2.38 0 0 Z " fill="#FF6C86" transform="translate(108,107)"/>
<path d="M0 0 C0.58265625 0.18175781 1.1653125 0.36351563 1.765625 0.55078125 C8.45691206 2.60235511 15.19880965 4.35228894 22 6 C21.67 6.99 21.34 7.98 21 9 C14.14019431 8.47232264 7.18206978 7.11576317 1 4 C0.15234375 1.86328125 0.15234375 1.86328125 0 0 Z " fill="#084A2A" transform="translate(56,126)"/>
<path d="M0 0 C0.66 0 1.32 0 2 0 C2 1.65 2 3.3 2 5 C3.175625 3.7625 3.175625 3.7625 4.375 2.5 C7 0 7 0 9 0 C9.33 0.99 9.66 1.98 10 3 C10.33 2.01 10.66 1.02 11 0 C12.9375 0.75 12.9375 0.75 15 2 C15.75 4.125 15.75 4.125 16 6 C14.12488426 6 12.24958447 5.98213296 10.375 5.9375 C8.04437265 5.72620721 8.04437265 5.72620721 7 7 C4.32941149 7.14115161 1.67567762 7.04247107 -1 7 C-0.67 4.69 -0.34 2.38 0 0 Z " fill="#FF4F6A" transform="translate(42,107)"/>
<path d="M0 0 C1.99954746 -0.04254356 4.00041636 -0.04080783 6 0 C6.33 0.33 6.66 0.66 7 1 C8.68183948 1.23287008 10.3712416 1.41264166 12.0625 1.5625 C12.98160156 1.64628906 13.90070313 1.73007812 14.84765625 1.81640625 C15.91306641 1.90728516 15.91306641 1.90728516 17 2 C17 2.33 17 2.66 17 3 C16.11957031 3.04898438 15.23914063 3.09796875 14.33203125 3.1484375 C12.58986328 3.26058594 12.58986328 3.26058594 10.8125 3.375 C9.08966797 3.47941406 9.08966797 3.47941406 7.33203125 3.5859375 C1.07536513 4.36343646 -1.88546239 6.4144257 -5.7734375 11.1796875 C-7.27396481 13.40658472 -7.83783799 15.32432687 -8 18 C-8.33 18 -8.66 18 -9 18 C-9.90711462 10.44071146 -9.90711462 10.44071146 -7.8046875 7.1015625 C-5.03235348 4.24564052 -2.95798897 2.7571805 1 2 C0.67 1.34 0.34 0.68 0 0 Z " fill="#EAEAEB" transform="translate(165,60)"/>
<path d="M0 0 C0.66 1.32 1.32 2.64 2 4 C2.66 4 3.32 4 4 4 C4.33 4.66 4.66 5.32 5 6 C17.02169834 11.08879658 29.8457044 9.73978326 42 6 C40.70133924 8.59732152 39.77191243 8.67187004 37.06640625 9.6015625 C31.97088989 11.20027446 27.2463482 11.44811344 21.9375 11.375 C20.6680957 11.39240234 20.6680957 11.39240234 19.37304688 11.41015625 C12.56241445 11.37864985 6.50949987 10.50949987 1.5 5.5 C0 3 0 3 0 0 Z " fill="#EDEBEC" transform="translate(157,78)"/>
<path d="M0 0 C0 0.33 0 0.66 0 1 C-7.26 1.33 -14.52 1.66 -22 2 C-20.68 2.66 -19.36 3.32 -18 4 C-19.62414378 4.19477739 -21.24936423 4.38059458 -22.875 4.5625 C-23.77992188 4.66691406 -24.68484375 4.77132812 -25.6171875 4.87890625 C-28 5 -28 5 -30 4 C-31.88484944 4.24621907 -33.76022087 4.56888087 -35.625 4.9375 C-37.12933594 5.22947266 -37.12933594 5.22947266 -38.6640625 5.52734375 C-39.43492187 5.68332031 -40.20578125 5.83929688 -41 6 C-31.73829051 -3.26170949 -11.77363782 -0.38031381 0 0 Z " fill="#EDEDEE" transform="translate(183,53)"/>
<path d="M0 0 C2.97 0.495 2.97 0.495 6 1 C5.01 1.66 4.02 2.32 3 3 C2.690625 3.804375 2.38125 4.60875 2.0625 5.4375 C0.80567288 8.4686713 -0.06921873 9.53460937 -3 11 C-7.42533476 10.81168788 -10.36273895 9.46050012 -14 7 C-11 6 -11 6 -8 7 C-5.66700175 7.03954234 -3.33291811 7.04401732 -1 7 C-1.20625 6.401875 -1.4125 5.80375 -1.625 5.1875 C-2 3 -2 3 0 0 Z " fill="#EDEDED" transform="translate(210,62)"/>
<path d="M0 0 C2.27057377 -0.05398987 4.54151288 -0.09278742 6.8125 -0.125 C8.07707031 -0.14820313 9.34164062 -0.17140625 10.64453125 -0.1953125 C14 0 14 0 17 2 C16.01 2.33 15.02 2.66 14 3 C14.99 3.66 15.98 4.32 17 5 C11.39 4.67 5.78 4.34 0 4 C-0.372678 8.627322 -0.372678 8.627322 1 11 C0.01 11 -0.98 11 -2 11 C-2.36923077 5.46153846 -2.36923077 5.46153846 -0.5 3.125 C-0.005 2.75375 0.49 2.3825 1 2 C0.67 1.34 0.34 0.68 0 0 Z " fill="#EDEAEB" transform="translate(84,60)"/>
<path d="M0 0 C0.66 0.33 1.32 0.66 2 1 C2.08741124 4.56234428 2.14052896 8.12441108 2.1875 11.6875 C2.22520508 13.19860352 2.22520508 13.19860352 2.26367188 14.74023438 C2.35856646 24.32458765 2.35856646 24.32458765 -1 28 C-3.6875 28.3125 -3.6875 28.3125 -6 28 C-4.36587557 26.29159719 -3.13093906 25.06546953 -1 24 C-0.67 16.08 -0.34 8.16 0 0 Z " fill="#EDEBEC" transform="translate(217,64)"/>
<path d="M0 0 C2.475 0.495 2.475 0.495 5 1 C4.875 4.3125 4.875 4.3125 4 8 C-0.87258102 11.36869799 -4.75818064 11.26137033 -10.375 10.6875 C-11.11105469 10.62626953 -11.84710938 10.56503906 -12.60546875 10.50195312 C-14.405013 10.35004355 -16.20276611 10.17716201 -18 10 C-18 9.67 -18 9.34 -18 9 C-17.13117188 8.93941406 -16.26234375 8.87882812 -15.3671875 8.81640625 C-14.21476562 8.73261719 -13.06234375 8.64882812 -11.875 8.5625 C-10.16957031 8.44068359 -10.16957031 8.44068359 -8.4296875 8.31640625 C-5.2459522 8.02269035 -2.14489093 7.56875687 1 7 C0.67 4.69 0.34 2.38 0 0 Z " fill="#DAC6CA" transform="translate(102,63)"/>
<path d="M0 0 C1.25169228 -0.00287018 1.25169228 -0.00287018 2.52867126 -0.00579834 C4.29133404 -0.0071586 6.05400689 -0.00347323 7.81665039 0.00488281 C10.52057268 0.01559817 13.22383259 0.00497539 15.92773438 -0.0078125 C17.63932439 -0.00649114 19.35091399 -0.00392924 21.0625 0 C21.87396988 -0.00404846 22.68543976 -0.00809692 23.52149963 -0.01226807 C29.23491526 0.03569651 29.23491526 0.03569651 31.46484375 2.265625 C27.48346545 3.5927511 23.61439148 3.33478413 19.46484375 3.265625 C19.46484375 2.935625 19.46484375 2.605625 19.46484375 2.265625 C9.23484375 2.265625 -0.99515625 2.265625 -11.53515625 2.265625 C-7.67522955 -0.30765947 -4.474566 -0.02237965 0 0 Z " fill="#E9EAEA" transform="translate(222.53515625,53.734375)"/>
<path d="M0 0 C-3 2 -3 2 -5.4375 2.875 C-8.46319152 4.20335238 -9.93432002 5.41681282 -12 8 C-12.48195275 11.04440135 -12.48195275 11.04440135 -12.25 14.25 C-12.21390625 15.32765625 -12.1778125 16.4053125 -12.140625 17.515625 C-12.09421875 18.33546875 -12.0478125 19.1553125 -12 20 C-14.77082834 17.22917166 -14.53096421 14.81929143 -15 11 C-15.33 10.01 -15.66 9.02 -16 8 C-14.92578125 6.24609375 -14.92578125 6.24609375 -13.3125 4.4375 C-12.79300781 3.83808594 -12.27351562 3.23867187 -11.73828125 2.62109375 C-7.7785348 -1.0717035 -5.2209094 -1.18657032 0 0 Z " fill="#E0DADB" transform="translate(169,61)"/>
<path d="M0 0 C4.00732686 0.12143415 5.84986756 1.5764828 8.5625 4.3125 C9.71247093 5.53779653 10.85863818 6.76668012 12 8 C13.2065625 9.1446875 13.2065625 9.1446875 14.4375 10.3125 C16 12 16 12 16 14 C12.31453408 12.38049597 9.42667806 10.0945887 6.3125 7.5625 C5.33925781 6.78003906 4.36601563 5.99757813 3.36328125 5.19140625 C1 3 1 3 0 0 Z " fill="#E1D3D6" transform="translate(91,83)"/>
<path d="M0 0 C0 1.32 0 2.64 0 4 C-0.78375 3.95875 -1.5675 3.9175 -2.375 3.875 C-5.16116119 3.71271266 -5.16116119 3.71271266 -7 6 C-8.32 6 -9.64 6 -11 6 C-11.33 4.35 -11.66 2.7 -12 1 C-8.0186217 -0.3271261 -4.14954773 -0.06915913 0 0 Z " fill="#EAF1EE" transform="translate(182,18)"/>
<path d="M0 0 C2.35694954 0.09031574 4.71153582 0.24688128 7.0625 0.4375 C8.35285156 0.53933594 9.64320312 0.64117187 10.97265625 0.74609375 C12.47119141 0.87177734 12.47119141 0.87177734 14 1 C14 1.33 14 1.66 14 2 C10.37 2.33 6.74 2.66 3 3 C3 6.63 3 10.26 3 14 C2.01 14 1.02 14 0 14 C-0.19393875 11.85473901 -0.37998676 9.70876323 -0.5625 7.5625 C-0.71912109 5.77005859 -0.71912109 5.77005859 -0.87890625 3.94140625 C-0.91886719 2.97074219 -0.95882812 2.00007813 -1 1 C-0.67 0.67 -0.34 0.34 0 0 Z " fill="#D8D1D2" transform="translate(80,60)"/>
<path d="M0 0 C7.26 0 14.52 0 22 0 C19 3 19 3 15.64453125 3.29296875 C14.37996094 3.25816406 13.11539063 3.22335938 11.8125 3.1875 C10.54019531 3.16042969 9.26789063 3.13335937 7.95703125 3.10546875 C6.49330078 3.05326172 6.49330078 3.05326172 5 3 C5 2.67 5 2.34 5 2 C3.35 1.67 1.7 1.34 0 1 C0 0.67 0 0.34 0 0 Z " fill="#E2DFE0" transform="translate(179,55)"/>
<path d="M0 0 C1.32 0.33 2.64 0.66 4 1 C4 1.66 4 2.32 4 3 C5.32 3.33 6.64 3.66 8 4 C7.67 5.32 7.34 6.64 7 8 C0.51020408 7.51020408 0.51020408 7.51020408 -1.9375 5.0625 C-3 3 -3 3 -3 1 C-2.34 1 -1.68 1 -1 1 C-0.67 1.33 -0.34 1.66 0 2 C0 1.34 0 0.68 0 0 Z " fill="#FF6D86" transform="translate(204,106)"/>
<path d="M0 0 C0.78375 0.04125 1.5675 0.0825 2.375 0.125 C2.045 1.115 1.715 2.105 1.375 3.125 C0.385 3.455 -0.605 3.785 -1.625 4.125 C-1.955 5.115 -2.285 6.105 -2.625 7.125 C-1.635 7.455 -0.645 7.785 0.375 8.125 C0.045 9.115 -0.285 10.105 -0.625 11.125 C-1.615 11.125 -2.605 11.125 -3.625 11.125 C-3.955 10.135 -4.285 9.145 -4.625 8.125 C-5.285 7.795 -5.945 7.465 -6.625 7.125 C-4.07142857 0.19387755 -4.07142857 0.19387755 0 0 Z " fill="#D9E6E0" transform="translate(167.625,26.875)"/>
<path d="M0 0 C1.62490954 -0.02698189 3.24994633 -0.04638757 4.875 -0.0625 C6.23238281 -0.07990234 6.23238281 -0.07990234 7.6171875 -0.09765625 C10 0 10 0 12 1 C11.67 1.99 11.34 2.98 11 4 C1.1 4 -8.8 4 -19 4 C-19 3.67 -19 3.34 -19 3 C-9.76 3 -0.52 3 9 3 C9 2.34 9 1.68 9 1 C6.03 1 3.06 1 0 1 C0 0.67 0 0.34 0 0 Z " fill="#EEF0F1" transform="translate(126,96)"/>
<path d="M0 0 C0.66022156 0.00141495 1.32044312 0.0028299 2.00067139 0.00428772 C4.09945294 0.0098638 6.19812595 0.02241178 8.296875 0.03515625 C9.72395679 0.04017435 11.15104025 0.04473671 12.578125 0.04882812 C16.06774332 0.05982537 19.55729856 0.07707345 23.046875 0.09765625 C23.046875 0.42765625 23.046875 0.75765625 23.046875 1.09765625 C10.671875 1.59265625 10.671875 1.59265625 -1.953125 2.09765625 C-1.953125 2.42765625 -1.953125 2.75765625 -1.953125 3.09765625 C-4.593125 3.09765625 -7.233125 3.09765625 -9.953125 3.09765625 C-10.283125 2.43765625 -10.613125 1.77765625 -10.953125 1.09765625 C-7.2830244 -0.0602685 -3.83036896 -0.01623038 0 0 Z " fill="#E8E9E9" transform="translate(59.953125,53.90234375)"/>
<path d="M0 0 C3.20831391 -0.0292483 6.41659307 -0.04688189 9.625 -0.0625 C10.98044922 -0.07506836 10.98044922 -0.07506836 12.36328125 -0.08789062 C17.02904289 -0.10491895 21.41013285 0.03170577 26 1 C26 1.33 26 1.66 26 2 C6.70355078 4.46903386 6.70355078 4.46903386 0 0 Z " fill="#004826" transform="translate(160,141)"/>
<path d="M0 0 C3.94727588 -0.17942163 6.5980513 -0.09350689 10 2 C10 2.66 10 3.32 10 4 C10.61875 4.268125 11.2375 4.53625 11.875 4.8125 C14 6 14 6 16 9 C12.56046508 7.48660464 9.74644447 5.39216315 6.78125 3.12109375 C4.86277897 1.91363501 3.21297324 1.43191802 1 1 C1.18129815 4.43793339 1.18129815 4.43793339 2 8 C3.93597032 9.51294288 3.93597032 9.51294288 6 10 C3.69 10.33 1.38 10.66 -1 11 C-1.33 10.34 -1.66 9.68 -2 9 C-1.34 9 -0.68 9 0 9 C0 6.03 0 3.06 0 0 Z " fill="#E8E5E5" transform="translate(82,82)"/>
<path d="M0 0 C1.00289062 0.10183594 2.00578125 0.20367187 3.0390625 0.30859375 C3.80992187 0.39238281 4.58078125 0.47617188 5.375 0.5625 C5.375 2.5425 5.375 4.5225 5.375 6.5625 C3.725 6.5625 2.075 6.5625 0.375 6.5625 C0.375 4.9125 0.375 3.2625 0.375 1.5625 C-0.615 1.5625 -1.605 1.5625 -2.625 1.5625 C-2.625 3.2125 -2.625 4.8625 -2.625 6.5625 C-2.955 6.5625 -3.285 6.5625 -3.625 6.5625 C-3.625 4.9125 -3.625 3.2625 -3.625 1.5625 C-4.615 1.8925 -5.605 2.2225 -6.625 2.5625 C-6.955 1.9025 -7.285 1.2425 -7.625 0.5625 C-4.89657939 -0.80171031 -3.01546682 -0.31557211 0 0 Z " fill="#FF395A" transform="translate(217.625,106.4375)"/>
<path d="M0 0 C2.64 0.33 5.28 0.66 8 1 C8 2.98 8 4.96 8 7 C6.68 7 5.36 7 4 7 C4 6.01 4 5.02 4 4 C2.35 4 0.7 4 -1 4 C-0.67 2.68 -0.34 1.36 0 0 Z " fill="#E2ECE7" transform="translate(37,38)"/>
<path d="M0 0 C0 1.32 0 2.64 0 4 C-0.69867188 3.9278125 -1.39734375 3.855625 -2.1171875 3.78125 C-3.02726562 3.6884375 -3.93734375 3.595625 -4.875 3.5 C-5.77992187 3.4071875 -6.68484375 3.314375 -7.6171875 3.21875 C-9.93313211 2.96952705 -9.93313211 2.96952705 -12 3 C-11 0 -11 0 -8.8125 -1.3125 C-5.25782353 -2.18142092 -3.32356365 -1.3912592 0 0 Z " fill="#DFEAE5" transform="translate(92,24)"/>
<path d="M0 0 C0.33 0 0.66 0 1 0 C1.33 9.9 1.66 19.8 2 30 C1.01 30.33 0.02 30.66 -1 31 C-1.66 30.34 -2.32 29.68 -3 29 C-2.67854004 28.46084961 -2.35708008 27.92169922 -2.02587891 27.36621094 C-0.78523049 24.50462968 -0.68127467 22.25497256 -0.5859375 19.140625 C-0.54726562 18.02558594 -0.50859375 16.91054687 -0.46875 15.76171875 C-0.4378125 14.60285156 -0.406875 13.44398437 -0.375 12.25 C-0.33632812 11.07566406 -0.29765625 9.90132812 -0.2578125 8.69140625 C-0.1636018 5.79442732 -0.07798398 2.89745374 0 0 Z " fill="#D5CFD0" transform="translate(219,62)"/>
<path d="M0 0 C0.99 0.33 1.98 0.66 3 1 C1.68 3.31 0.36 5.62 -1 8 C-1.66 8 -2.32 8 -3 8 C-3 9.98 -3 11.96 -3 14 C-3.33 14 -3.66 14 -4 14 C-4 11.36 -4 8.72 -4 6 C-4.66 5.67 -5.32 5.34 -6 5 C-5.01 3.68 -4.02 2.36 -3 1 C-2.01 1.33 -1.02 1.66 0 2 C0 1.34 0 0.68 0 0 Z " fill="#DDD4D6" transform="translate(133,67)"/>
<path d="M0 0 C1.7325 0.1546875 1.7325 0.1546875 3.5 0.3125 C4.16 1.3025 4.82 2.2925 5.5 3.3125 C5.17 3.9725 4.84 4.6325 4.5 5.3125 C5.16 5.6425 5.82 5.9725 6.5 6.3125 C5.51 6.3125 4.52 6.3125 3.5 6.3125 C3.5 5.3225 3.5 4.3325 3.5 3.3125 C2.18 3.6425 0.86 3.9725 -0.5 4.3125 C-0.5 3.6525 -0.5 2.9925 -0.5 2.3125 C-2.15 2.3125 -3.8 2.3125 -5.5 2.3125 C-3.5 0.3125 -3.5 0.3125 0 0 Z M0.5 9.3125 C1.16 9.6425 1.82 9.9725 2.5 10.3125 C1.51 11.3025 0.52 12.2925 -0.5 13.3125 C-0.83 12.6525 -1.16 11.9925 -1.5 11.3125 C-0.84 11.3125 -0.18 11.3125 0.5 11.3125 C0.5 10.6525 0.5 9.9925 0.5 9.3125 Z " fill="#F0EAEB" transform="translate(204.5,81.6875)"/>
<path d="M0 0 C0 2 0 2 -1.125 3.625 C-3.75887944 5.55651159 -5.81916956 5.21205536 -9 5 C-9 3.68 -9 2.36 -9 1 C-5.64919071 -1.10976881 -3.77897651 -1.0497157 0 0 Z " fill="#ECF2EF" transform="translate(217,33)"/>
<path d="M0 0 C1.21236328 0.01353516 1.21236328 0.01353516 2.44921875 0.02734375 C3.37154297 0.04474609 3.37154297 0.04474609 4.3125 0.0625 C4.3125 0.7225 4.3125 1.3825 4.3125 2.0625 C2.89853098 2.57007862 1.48118271 3.06824925 0.0625 3.5625 C-1.12085938 3.98015625 -1.12085938 3.98015625 -2.328125 4.40625 C-4.6875 5.0625 -4.6875 5.0625 -8.6875 5.0625 C-8.375 3.125 -8.375 3.125 -7.6875 1.0625 C-4.80538698 0.10179566 -2.98899956 -0.04331883 0 0 Z " fill="#DFEAE5" transform="translate(150.6875,15.9375)"/>
<path d="M0 0 C0.66 0 1.32 0 2 0 C2 1.65 2 3.3 2 5 C2.66 5 3.32 5 4 5 C4 3.35 4 1.7 4 0 C5.875 0.1875 5.875 0.1875 8 1 C9.25 3.5625 9.25 3.5625 10 6 C7 6 4 6 1 6 C0 5 0 5 -0.0625 2.4375 C-0.041875 1.633125 -0.02125 0.82875 0 0 Z " fill="#FF647D" transform="translate(224,107)"/>
<path d="M0 0 C-0.33 0.66 -0.66 1.32 -1 2 C-1.66 1.67 -2.32 1.34 -3 1 C-3 2.32 -3 3.64 -3 5 C-2.01 4.67 -1.02 4.34 0 4 C0 4.66 0 5.32 0 6 C-2.31 6 -4.62 6 -7 6 C-8.0625 4.125 -8.0625 4.125 -9 2 C-8 0 -8 0 -6.1875 -0.6875 C-3.81180233 -1.02688538 -2.26664171 -0.72856341 0 0 Z " fill="#FF8A9B" transform="translate(169,107)"/>
<path d="M0 0 C-0.99 1.485 -0.99 1.485 -2 3 C-3.8125 3.328125 -3.8125 3.328125 -6 3.25 C-6.79277344 3.22421875 -7.58554688 3.1984375 -8.40234375 3.171875 C-12.61475366 2.89315916 -16.80718826 2.49018258 -21 2 C-21 1.67 -21 1.34 -21 1 C-18.81274749 0.83011631 -16.62518299 0.66424731 -14.4375 0.5 C-12.61025391 0.36078125 -12.61025391 0.36078125 -10.74609375 0.21875 C-7.15365784 0.00897272 -3.59752457 -0.03704015 0 0 Z " fill="#2A7050" transform="translate(191,139)"/>
<path d="M0 0 C2.8125 -0.3125 2.8125 -0.3125 6 0 C7.9375 2.375 7.9375 2.375 9 5 C8.67 5.66 8.34 6.32 8 7 C7.34 6.34 6.68 5.68 6 5 C5.34 5.66 4.68 6.32 4 7 C4 5.35 4 3.7 4 2 C3.34 2 2.68 2 2 2 C2 3.65 2 5.3 2 7 C1.34 7 0.68 7 0 7 C0 4.69 0 2.38 0 0 Z " fill="#FF5269" transform="translate(122,106)"/>
<path d="M0 0 C-1 3 -1 3 -2.7421875 4.16796875 C-3.44601563 4.50441406 -4.14984375 4.84085937 -4.875 5.1875 C-5.57367188 5.53167969 -6.27234375 5.87585938 -6.9921875 6.23046875 C-9 7 -9 7 -12 7 C-11 4 -11 4 -9.2578125 2.83203125 C-8.20207031 2.32736328 -8.20207031 2.32736328 -7.125 1.8125 C-6.42632812 1.46832031 -5.72765625 1.12414062 -5.0078125 0.76953125 C-3 0 -3 0 0 0 Z " fill="#FF0F26" transform="translate(208,85)"/>
<path d="M0 0 C3.01305957 0.38878188 4.39685311 1.26456874 7 3 C4.69 3 2.38 3 0 3 C0 3.99 0 4.98 0 6 C2.31 6 4.62 6 7 6 C7 6.33 7 6.66 7 7 C4.36 7 1.72 7 -1 7 C-1.33 6.01 -1.66 5.02 -2 4 C-4.01508358 3.26676204 -4.01508358 3.26676204 -6 3 C-5.67 2.34 -5.34 1.68 -5 1 C-4.01 1.33 -3.02 1.66 -2 2 C-1.34 1.34 -0.68 0.68 0 0 Z " fill="#EFF2F2" transform="translate(210,54)"/>
<path d="M0 0 C2.08268593 -0.08126087 4.16628658 -0.13930839 6.25 -0.1875 C7.99023438 -0.23970703 7.99023438 -0.23970703 9.765625 -0.29296875 C13.22268407 0.02017066 14.51565563 0.65709108 17 3 C14.93757383 3.02717692 12.87504297 3.0464758 10.8125 3.0625 C9.66394531 3.07410156 8.51539063 3.08570313 7.33203125 3.09765625 C4.40699414 3.01192832 1.83683709 2.67849023 -1 2 C-0.67 1.34 -0.34 0.68 0 0 Z " fill="#EBDDDF" transform="translate(161,54)"/>
<path d="M0 0 C-1.1875 2.5 -1.1875 2.5 -3 5 C-5.6875 5.3125 -5.6875 5.3125 -8 5 C-8 3.68 -8 2.36 -8 1 C-4.93251126 -0.86240388 -3.40254489 -1.2151946 0 0 Z " fill="#EAF1EE" transform="translate(30,49)"/>
<path d="M0 0 C2.9375 1.4375 2.9375 1.4375 5 3 C5 3.33 5 3.66 5 4 C3.27054347 3.85764543 1.54144346 3.71095618 -0.1875 3.5625 C-1.63189453 3.44068359 -1.63189453 3.44068359 -3.10546875 3.31640625 C-5.78649602 3.02333849 -8.3662986 2.57296246 -11 2 C-7.34387956 -0.33991708 -4.26792624 -0.37437949 0 0 Z " fill="#003F20" transform="translate(100,137)"/>
<path d="M0 0 C1.65 0 3.3 0 5 0 C5.33 0.99 5.66 1.98 6 3 C5.34 3 4.68 3 4 3 C4.33 4.32 4.66 5.64 5 7 C4.01 7.33 3.02 7.66 2 8 C1.34 7.67 0.68 7.34 0 7 C0 4.69 0 2.38 0 0 Z " fill="#FF6B8B" transform="translate(170,106)"/>
<path d="M0 0 C-0.33 0.33 -0.66 0.66 -1 1 C-1.04080783 2.99958364 -1.04254356 5.00045254 -1 7 C-3.95664519 8.4783226 -6.74229737 8.06032783 -10 8 C-7.66785852 6.79371992 -5.50357861 5.8345262 -3 5 C-3 3.68 -3 2.36 -3 1 C-4.65 0.67 -6.3 0.34 -8 0 C-8 -0.33 -8 -0.66 -8 -1 C-3.375 -2.25 -3.375 -2.25 0 0 Z " fill="#E4E1E1" transform="translate(104,63)"/>
<path d="M0 0 C2.31 0 4.62 0 7 0 C7 0.99 7 1.98 7 3 C5.02 3.99 3.04 4.98 1 6 C0.34 5.34 -0.32 4.68 -1 4 C-0.625 1.875 -0.625 1.875 0 0 Z " fill="#E4EDE9" transform="translate(251,44)"/>
<path d="M0 0 C1.4540625 0.0309375 1.4540625 0.0309375 2.9375 0.0625 C2.6075 1.3825 2.2775 2.7025 1.9375 4.0625 C-0.3725 4.3925 -2.6825 4.7225 -5.0625 5.0625 C-3.9375 0.08035714 -3.9375 0.08035714 0 0 Z " fill="#D8E5DF" transform="translate(89.0625,30.9375)"/>
<path d="M0 0 C3.14737182 0.69941596 6.02588876 1.76078698 9 3 C9 3.66 9 4.32 9 5 C5.7 5 2.4 5 -1 5 C-0.67 3.35 -0.34 1.7 0 0 Z " fill="#DCE8E2" transform="translate(126,19)"/>
<path d="M0 0 C1.32 0.33 2.64 0.66 4 1 C4.625 3.375 4.625 3.375 5 6 C4.34 6.66 3.68 7.32 3 8 C2.01 7.67 1.02 7.34 0 7 C0 4.69 0 2.38 0 0 Z " fill="#FFA1B4" transform="translate(247,106)"/>
<path d="M0 0 C-0.33 0.99 -0.66 1.98 -1 3 C-6.61 2.67 -12.22 2.34 -18 2 C-18 1.67 -18 1.34 -18 1 C-16.12528812 0.83012319 -14.25021305 0.66425224 -12.375 0.5 C-11.33085937 0.4071875 -10.28671875 0.314375 -9.2109375 0.21875 C-6.12853212 0.00875645 -3.08834771 -0.03709727 0 0 Z " fill="#DCE1E0" transform="translate(186,96)"/>
<path d="M0 0 C0.33 1.98 0.66 3.96 1 6 C-1.64 5.67 -4.28 5.34 -7 5 C-7 4.01 -7 3.02 -7 2 C-4.35261084 0.5393715 -3.10551666 0 0 0 Z " fill="#D7E5DE" transform="translate(124,33)"/>
<path d="M0 0 C1.2065625 0.0309375 1.2065625 0.0309375 2.4375 0.0625 C1.7775 2.0425 1.1175 4.0225 0.4375 6.0625 C-1.2125 5.7325 -2.8625 5.4025 -4.5625 5.0625 C-3.43829114 0.08386076 -3.43829114 0.08386076 0 0 Z " fill="#E9F1ED" transform="translate(13.5625,58.9375)"/>
<path d="M0 0 C-3.87671106 2.67289025 -7.79267603 2.01875653 -12.25 1.625 C-12.99507813 1.56828125 -13.74015625 1.5115625 -14.5078125 1.453125 C-16.33935108 1.31223742 -18.16981352 1.15748116 -20 1 C-20 0.67 -20 0.34 -20 0 C-19.10796875 -0.06058594 -18.2159375 -0.12117188 -17.296875 -0.18359375 C-15.54117188 -0.30927734 -15.54117188 -0.30927734 -13.75 -0.4375 C-12.58984375 -0.51871094 -11.4296875 -0.59992188 -10.234375 -0.68359375 C-7.13297345 -0.88433594 -7.13297345 -0.88433594 -4.765625 -1.66015625 C-3 -2 -3 -2 0 0 Z " fill="#DCD3D4" transform="translate(104,72)"/>
<path d="M0 0 C0.99 0.33 1.98 0.66 3 1 C3 1.99 3 2.98 3 4 C2.01 4 1.02 4 0 4 C0 5.32 0 6.64 0 8 C-1.32 7.67 -2.64 7.34 -4 7 C-4 4 -4 4 -2 1.8125 C-1.34 1.214375 -0.68 0.61625 0 0 Z " fill="#DDE9E3" transform="translate(201,37)"/>
<path d="M0 0 C2.475 0.495 2.475 0.495 5 1 C5.33 2.65 5.66 4.3 6 6 C5.01 6.495 5.01 6.495 4 7 C4 5.35 4 3.7 4 2 C3.34 2 2.68 2 2 2 C2 3.65 2 5.3 2 7 C1.34 7 0.68 7 0 7 C0 4.69 0 2.38 0 0 Z " fill="#FF4C6C" transform="translate(60,106)"/>
<path d="M0 0 C0.66 0.33 1.32 0.66 2 1 C1.57847656 1.44730469 1.15695313 1.89460938 0.72265625 2.35546875 C-3.5377979 6.98399766 -3.5377979 6.98399766 -5 13 C-5.33 13 -5.66 13 -6 13 C-6.35474551 9.92553889 -6.53698855 7.05872891 -6 4 C-3 1.4375 -3 1.4375 0 0 Z " fill="#F2F1F1" transform="translate(162,65)"/>
<path d="M0 0 C2.19050021 0.09017996 4.378466 0.24666208 6.5625 0.4375 C7.76003906 0.53933594 8.95757812 0.64117187 10.19140625 0.74609375 C11.11824219 0.82988281 12.04507813 0.91367188 13 1 C9.47567443 3.34955038 7.20625886 3.77861795 3 4 C0.5625 2.5625 0.5625 2.5625 -1 1 C-0.67 0.67 -0.34 0.34 0 0 Z " fill="#0C5734" transform="translate(103,138)"/>
<path d="M0 0 C0.33 1.32 0.66 2.64 1 4 C-2.4019487 6.09350689 -5.05272412 6.17942163 -9 6 C-6.11912454 3.59927045 -3.43595166 1.52708963 0 0 Z " fill="#094E2C" transform="translate(270,113)"/>
<path d="M0 0 C1.98 0 3.96 0 6 0 C6 1.98 6 3.96 6 6 C5.34 6 4.68 6 4 6 C3.67 4.68 3.34 3.36 3 2 C2.67 3.32 2.34 4.64 2 6 C1.34 6 0.68 6 0 6 C0 4.02 0 2.04 0 0 Z " fill="#FF2952" transform="translate(238,107)"/>
<path d="M0 0 C1.32 0 2.64 0 4 0 C3.34 1.65 2.68 3.3 2 5 C2.66 5 3.32 5 4 5 C4 5.66 4 6.32 4 7 C2.68 7 1.36 7 0 7 C-0.38133299 5.0085944 -0.71325582 3.00720923 -1 1 C-0.67 0.67 -0.34 0.34 0 0 Z " fill="#E5EEEA" transform="translate(101,34)"/>
<path d="M0 0 C0.33 0.66 0.66 1.32 1 2 C3.02463255 2.65213292 3.02463255 2.65213292 5 3 C5.33 2.01 5.66 1.02 6 0 C6.33 0 6.66 0 7 0 C7.33 1.98 7.66 3.96 8 6 C5.125 6.625 5.125 6.625 2 7 C1.34 6.34 0.68 5.68 0 5 C0.66 4.67 1.32 4.34 2 4 C1.34 3.67 0.68 3.34 0 3 C0 2.01 0 1.02 0 0 Z " fill="#FF2F5B" transform="translate(67,107)"/>
<path d="M0 0 C2.86724686 0.57344937 3.8614515 0.8614515 6 3 C4.6875 4.5 4.6875 4.5 3 6 C2.01 6 1.02 6 0 6 C0 4.02 0 2.04 0 0 Z " fill="#FFDBE1" transform="translate(74,106)"/>
<path d="M0 0 C3.3 0.33 6.6 0.66 10 1 C10 1.66 10 2.32 10 3 C5.545 3.495 5.545 3.495 1 4 C0.67 2.68 0.34 1.36 0 0 Z " fill="#D8E6DF" transform="translate(24,56)"/>
<path d="M0 0 C0.66 0 1.32 0 2 0 C2.33 1.65 2.66 3.3 3 5 C3.99 5.33 4.98 5.66 6 6 C6 5.34 6 4.68 6 4 C6.66 4.33 7.32 4.66 8 5 C7.67 5.66 7.34 6.32 7 7 C4.36 7 1.72 7 -1 7 C-0.67 4.69 -0.34 2.38 0 0 Z " fill="#FF7B97" transform="translate(42,107)"/>
<path d="M0 0 C1.98 0 3.96 0 6 0 C5.67 0.99 5.34 1.98 5 3 C2.69 3.33 0.38 3.66 -2 4 C-1.34 2.68 -0.68 1.36 0 0 Z " fill="#CBDDD4" transform="translate(213,23)"/>
<path d="M0 0 C0.66 0.33 1.32 0.66 2 1 C1.01 1.33 0.02 1.66 -1 2 C-1.33 2.99 -1.66 3.98 -2 5 C-4.64 5 -7.28 5 -10 5 C-6.76527494 2.84351662 -3.62848922 1.38542316 0 0 Z " fill="#155B38" transform="translate(255,121)"/>
<path d="M0 0 C0.78375 0.04125 1.5675 0.0825 2.375 0.125 C-0.625 2.125 -0.625 2.125 -2.625 2.125 C-2.625 3.775 -2.625 5.425 -2.625 7.125 C-3.945 6.795 -5.265 6.465 -6.625 6.125 C-3.85227273 0.18344156 -3.85227273 0.18344156 0 0 Z " fill="#E5EEE9" transform="translate(283.625,67.875)"/>
<path d="M0 0 C8.57142857 -0.28571429 8.57142857 -0.28571429 12 2 C7.34462607 2.83796731 3.62921525 3.0161692 -1 2 C-0.67 1.34 -0.34 0.68 0 0 Z " fill="#09542E" transform="translate(118,140)"/>
<path d="M0 0 C1.32 0.33 2.64 0.66 4 1 C3.67 1.99 3.34 2.98 3 4 C1.68 4 0.36 4 -1 4 C-1.33 4.99 -1.66 5.98 -2 7 C-2 6.34 -2 5.68 -2 5 C-3.65 5 -5.3 5 -7 5 C-7 4.67 -7 4.34 -7 4 C-6.030625 3.71125 -5.06125 3.4225 -4.0625 3.125 C-0.89335797 2.35785318 -0.89335797 2.35785318 0 0 Z " fill="#508C71" transform="translate(29,50)"/>
<path d="M0 0 C3.125 -0.1875 3.125 -0.1875 6 0 C6.33 0.99 6.66 1.98 7 3 C4.03 3 1.06 3 -2 3 C-1.34 2.01 -0.68 1.02 0 0 Z " fill="#D1E1D9" transform="translate(235,36)"/>
<path d="M0 0 C1.9453125 -0.29296875 1.9453125 -0.29296875 4.125 -0.1875 C5.40375 -0.125625 6.6825 -0.06375 8 0 C5.73814546 2.26185454 4.03016439 3.03921617 1 4 C0.01 3.67 -0.98 3.34 -2 3 C-1.34 2.01 -0.68 1.02 0 0 Z " fill="#013F22" transform="translate(243,126)"/>
<path d="M0 0 C1.32 0.33 2.64 0.66 4 1 C4 2.65 4 4.3 4 6 C2.68 5.67 1.36 5.34 0 5 C0 3.35 0 1.7 0 0 Z " fill="#EBF2EE" transform="translate(285,80)"/>
<path d="M0 0 C0 0.66 0 1.32 0 2 C-3.22791555 4.1519437 -4.28400809 4.20086443 -8 4 C-7.67 3.01 -7.34 2.02 -7 1 C-4.52260646 0.09162237 -2.66420516 0 0 0 Z " fill="#C6DAD0" transform="translate(26,65)"/>
<path d="M0 0 C2.97 0 5.94 0 9 0 C9 1.32 9 2.64 9 4 C7.68 4 6.36 4 5 4 C5 3.01 5 2.02 5 1 C3.35 1 1.7 1 0 1 C0 0.67 0 0.34 0 0 Z " fill="#76A590" transform="translate(36,41)"/>
<path d="M0 0 C2.33944736 0.28730055 4.6739143 0.61936779 7 1 C6.67 1.99 6.34 2.98 6 4 C4.68 4 3.36 4 2 4 C2 3.34 2 2.68 2 2 C1.01 1.67 0.02 1.34 -1 1 C-0.67 0.67 -0.34 0.34 0 0 Z " fill="#155938" transform="translate(71,131)"/>
<path d="M0 0 C0.99 0.33 1.98 0.66 3 1 C3.33 2.65 3.66 4.3 4 6 C3.34 6 2.68 6 2 6 C2 5.34 2 4.68 2 4 C1.34 4 0.68 4 0 4 C0 4.66 0 5.32 0 6 C-0.66 5.67 -1.32 5.34 -2 5 C-1.34 3.35 -0.68 1.7 0 0 Z " fill="#FF4E6B" transform="translate(152,107)"/>
<path d="M0 0 C1.32 0.33 2.64 0.66 4 1 C3.67 1.99 3.34 2.98 3 4 C0.125 4.125 0.125 4.125 -3 4 C-3.66 3.34 -4.32 2.68 -5 2 C-3.35 1.67 -1.7 1.34 0 1 C0 0.67 0 0.34 0 0 Z " fill="#F3D8DD" transform="translate(250,90)"/>
<path d="M0 0 C1.65 0 3.3 0 5 0 C5 0.66 5 1.32 5 2 C4.34 2 3.68 2 3 2 C3 2.99 3 3.98 3 5 C1.68 4.34 0.36 3.68 -1 3 C-0.67 2.01 -0.34 1.02 0 0 Z " fill="#D5E3DC" transform="translate(43,53)"/>
<path d="M0 0 C2.475 0.99 2.475 0.99 5 2 C5 2.99 5 3.98 5 5 C2.03 4.505 2.03 4.505 -1 4 C-0.67 2.68 -0.34 1.36 0 0 Z " fill="#E6EFEB" transform="translate(273,48)"/>
<path d="M0 0 C2.97 0.33 5.94 0.66 9 1 C9 1.33 9 1.66 9 2 C5.37 2.33 1.74 2.66 -2 3 C-1.34 2.01 -0.68 1.02 0 0 Z " fill="#00371C" transform="translate(191,139)"/>
<path d="M0 0 C0.66 0 1.32 0 2 0 C2.66 1.98 3.32 3.96 4 6 C1.69 5.34 -0.62 4.68 -3 4 C-2.67 3.34 -2.34 2.68 -2 2 C-1.34 2 -0.68 2 0 2 C0 1.34 0 0.68 0 0 Z " fill="#1D6542" transform="translate(248,45)"/>
<path d="M0 0 C1.65 0.33 3.3 0.66 5 1 C5 1.66 5 2.32 5 3 C2.69 3.33 0.38 3.66 -2 4 C-1.34 2.68 -0.68 1.36 0 0 Z " fill="#E0EBE5" transform="translate(86,41)"/>
<path d="M0 0 C1.65 0 3.3 0 5 0 C5.33 0.99 5.66 1.98 6 3 C3.69 3 1.38 3 -1 3 C-0.67 2.01 -0.34 1.02 0 0 Z " fill="#BED5CA" transform="translate(54,32)"/>
<path d="M0 0 C-0.99 1.485 -0.99 1.485 -2 3 C-5 3.3125 -5 3.3125 -8 3 C-8.66 2.34 -9.32 1.68 -10 1 C-6.78548731 -0.60725635 -3.56387464 -0.05748185 0 0 Z " fill="#E9EFEE" transform="translate(57,96)"/>
<path d="M0 0 C-1 3 -1 3 -4 5 C-4.99 5 -5.98 5 -7 5 C-6 2 -6 2 -4.0625 0.8125 C-2 0 -2 0 0 0 Z " fill="#CFE0D7" transform="translate(76,38)"/>
<path d="M0 0 C1.98 0 3.96 0 6 0 C5.34 1.32 4.68 2.64 4 4 C1.525 3.01 1.525 3.01 -1 2 C-0.67 1.34 -0.34 0.68 0 0 Z " fill="#E2ECE7" transform="translate(109,27)"/>
<path d="M0 0 C2.31 0 4.62 0 7 0 C6.01 1.485 6.01 1.485 5 3 C2.03 2.505 2.03 2.505 -1 2 C-0.67 1.34 -0.34 0.68 0 0 Z " fill="#105936" transform="translate(184,139)"/>
<path d="M0 0 C0.33 0.66 0.66 1.32 1 2 C1.66 2.33 2.32 2.66 3 3 C2 4 2 4 -1.5625 4.0625 C-2.696875 4.041875 -3.83125 4.02125 -5 4 C-5 3.34 -5 2.68 -5 2 C-3.35 2 -1.7 2 0 2 C0 1.34 0 0.68 0 0 Z " fill="#17603D" transform="translate(18,88)"/>
<path d="M0 0 C2.375 0.25 2.375 0.25 5 1 C6.3125 3.0625 6.3125 3.0625 7 5 C3.34683329 3.75023244 2.21934164 3.32901247 0 0 Z " fill="#E1DADB" transform="translate(118,85)"/>
<path d="M0 0 C0.66 0.99 1.32 1.98 2 3 C-0.64738916 4.4606285 -1.89448334 5 -5 5 C-4 2 -4 2 -1.9375 0.8125 C-1.298125 0.544375 -0.65875 0.27625 0 0 Z " fill="#E2D4D6" transform="translate(125,71)"/>
<path d="M0 0 C2.475 0.495 2.475 0.495 5 1 C5 1.99 5 2.98 5 4 C3.0625 3.6875 3.0625 3.6875 1 3 C0.67 2.01 0.34 1.02 0 0 Z " fill="#E2ECE7" transform="translate(184,37)"/>
<path d="M0 0 C0.99 0 1.98 0 3 0 C3.66 1.32 4.32 2.64 5 4 C3.68 4.33 2.36 4.66 1 5 C0.67 3.35 0.34 1.7 0 0 Z " fill="#DDE9E3" transform="translate(130,27)"/>
</svg>
